<svg width="36" height="36" viewBox="0 0 36 36" fill="none" xmlns="http://www.w3.org/2000/svg">
<path d="M0.776346 35.9098C0.19639 35.6549 -0.0200407 35.2155 0.00144371 34.5826C0.0363558 33.5519 0.0101107 32.5191 0.0110873 31.4872C0.0120638 30.7542 0.421121 30.354 1.14243 30.3377C1.96678 30.3193 2.71177 30.567 3.4293 30.9448C5.07688 31.8124 6.80723 31.9462 8.58189 31.4493C9.11106 31.301 9.61131 31.0394 10.1135 30.8055C11.4996 30.16 12.8984 30.122 14.2629 30.8064C15.4673 31.4106 16.7043 31.7821 18.0608 31.7254C19.133 31.6807 20.1289 31.3849 21.0775 30.8922C22.6098 30.0962 24.1472 30.1302 25.6665 30.9273C27.3274 31.7986 29.0627 31.9513 30.8503 31.4502C31.3904 31.2989 31.9023 31.0345 32.4116 30.7897C33.073 30.4717 33.7604 30.3163 34.4927 30.3398C35.0681 30.3583 35.5132 30.7767 35.5176 31.3478C35.5263 32.5304 35.5237 33.7131 35.5188 34.8957C35.5166 35.4176 35.1816 35.7011 34.7551 35.9098H0.776346Z" fill="white"/>
<path d="M24.5609 19.2296C25.0528 17.879 25.5347 16.5548 26.0172 15.2308C26.9038 12.7973 27.7874 10.3629 28.6827 7.93274C28.7642 7.7116 28.7428 7.55158 28.6138 7.36038C28.1475 6.66855 27.7043 5.96118 27.2387 5.26879C26.9918 4.90131 26.9466 4.52748 27.0983 4.11554C27.4737 3.09564 27.8397 2.07202 28.2158 1.05231C28.472 0.35805 29.0146 0.108752 29.7139 0.361498C31.3773 0.962771 33.0405 1.56523 34.7017 2.17291C35.4403 2.44315 35.6806 2.97486 35.411 3.71952C35.0565 4.69812 34.6822 5.67003 34.348 6.65554C34.1822 7.14429 33.8759 7.42594 33.3903 7.56412C32.6012 7.7887 31.8153 8.02591 31.0344 8.27773C30.903 8.32002 30.7435 8.44036 30.6988 8.562C29.3197 12.3183 27.953 16.0792 26.5848 19.8395C26.5736 19.8702 26.5668 19.9024 26.5528 19.9522C27.653 20.3533 28.7496 20.752 29.8454 21.1533C30.7805 21.4958 30.9974 21.9595 30.6512 22.8959C30.1619 24.2191 29.6926 25.5504 29.1632 26.8574C28.8043 27.7437 28.2338 28.5092 27.5894 29.2193C27.4217 29.4041 27.2913 29.4 27.0866 29.3102C26.4205 29.018 25.7679 28.6605 25.0706 28.4807C23.4263 28.0569 21.8104 28.1942 20.2712 28.9678C19.9307 29.1389 19.5733 29.2763 19.2298 29.4419C18.9896 29.5575 18.8612 29.4926 18.7459 29.2533C17.6126 26.901 17.4781 24.4962 18.3519 22.038C18.7508 20.9159 19.1658 19.7995 19.5767 18.6816C19.8409 17.9629 20.377 17.7083 21.0916 17.9662C22.233 18.3783 23.3721 18.7963 24.5609 19.2296ZM24.5692 19.2504C24.1201 20.4924 23.6845 21.6846 23.262 22.8816C23.2104 23.0276 23.1955 23.2035 23.2203 23.3564C23.2965 23.8274 23.661 24.1712 24.0954 24.2179C24.607 24.2729 25.0289 24.0269 25.2147 23.5313C25.5714 22.58 25.9137 21.6233 26.2603 20.6683C26.342 20.4437 26.4184 20.2172 26.5086 19.9584C25.8536 19.7193 25.2298 19.4916 24.5692 19.2504ZM30.4044 6.25995C31.05 6.06505 31.6693 5.88112 32.2857 5.68827C32.3678 5.6626 32.4768 5.60727 32.503 5.53873C32.7164 4.98322 32.9129 4.42119 33.1218 3.84142C32.0205 3.44147 30.962 3.05705 29.8736 2.66185C29.6611 3.23978 29.457 3.77669 29.2718 4.32012C29.2441 4.40093 29.2799 4.52812 29.3294 4.60652C29.6757 5.15302 30.0333 5.69226 30.4044 6.25995Z" fill="white"/>
<path d="M9.75785 20.147C10.6053 19.1946 11.6075 18.6623 12.7467 18.4117C13.3758 18.2733 14.0259 18.2074 14.6703 18.1692C15.1917 18.1381 15.6687 18.5781 15.6653 19.0882C15.6536 20.8136 15.2688 22.4272 14.0437 23.7253C13.0669 24.7605 11.7903 25.1855 10.4223 25.3915C10.3191 25.407 10.2151 25.4147 10.1116 25.4279C10.0083 25.4413 9.90506 25.4572 9.75785 25.4782C9.75785 25.957 9.75785 26.4401 9.75785 26.9233C9.75785 27.4337 9.76224 27.9442 9.75394 28.4544C9.7526 28.547 9.72562 28.6957 9.66678 28.7222C9.05692 28.997 8.43827 29.2529 7.8212 29.5113C7.78324 29.5272 7.73612 29.521 7.66385 29.5278V25.5238C6.96439 25.3715 6.28544 25.2725 5.63761 25.0735C3.59598 24.4463 2.42484 23.0072 1.97269 20.9615C1.84623 20.3888 1.7902 19.7949 1.76114 19.2079C1.73099 18.6012 2.19925 18.1451 2.81119 18.1628C4.6392 18.2155 6.30887 18.6854 7.66996 20.1296C7.66996 19.5853 7.6381 19.104 7.67753 18.6285C7.73282 17.9648 7.56534 17.427 7.14383 16.8818C6.34964 15.8546 5.88639 14.6741 5.92948 13.3391C5.9661 12.2014 6.38456 11.1952 7.01053 10.2701C7.28861 9.85886 7.60367 9.46756 7.93924 9.10126C8.37601 8.62469 9.04117 8.61829 9.47941 9.08807C10.4595 10.1389 11.2089 11.3193 11.4427 12.7717C11.6568 14.099 11.2801 15.2916 10.6104 16.4157C10.4744 16.6442 10.3443 16.8879 10.1602 17.0741C9.8035 17.4348 9.72147 17.8493 9.75004 18.3358C9.78373 18.908 9.75785 19.4836 9.75785 20.147Z" fill="white"/>
<path d="M24.5695 19.2505C25.2302 19.4917 25.854 19.7195 26.5091 19.9586C26.4186 20.2173 26.3424 20.4438 26.2609 20.6684C25.914 21.6234 25.5718 22.5801 25.2151 23.5314C25.0292 24.027 24.6073 24.273 24.0958 24.218C23.6615 24.1713 23.2969 23.8275 23.2206 23.3565C23.1959 23.2037 23.2108 23.0277 23.2624 22.8817C23.685 21.6848 24.1205 20.4925 24.5695 19.2505Z" fill="white"/>
</svg>
