<svg width="36" height="36" viewBox="0 0 36 36" fill="none" xmlns="http://www.w3.org/2000/svg">
<path d="M34.0861 25.7434L29.1909 20.8483C27.4426 19.1 24.4705 19.7994 23.7712 22.0721C23.2467 23.6456 21.4984 24.5197 19.925 24.17C16.4284 23.2958 11.7081 18.7503 10.8339 15.0789C10.3094 13.5054 11.3584 11.7571 12.9319 11.2327C15.2046 10.5334 15.9039 7.56132 14.1557 5.81304L9.26048 0.917848C7.86186 -0.305949 5.76392 -0.305949 4.54012 0.917848L1.21839 4.23958C-2.10334 7.73614 1.56805 17.002 9.78497 25.219C18.0019 33.4359 27.2678 37.2822 30.7643 33.7855L34.0861 30.4638C35.3099 29.0652 35.3099 26.9672 34.0861 25.7434Z" fill="white"/>
</svg>
