<svg width="25" height="37" viewBox="0 0 25 37" fill="none" xmlns="http://www.w3.org/2000/svg">
<path d="M12.4796 0.57666C5.59837 0.57666 0 6.17508 0 13.0562C0 21.7051 12.4918 36.4792 12.4918 36.4792C12.4918 36.4792 24.9591 21.2799 24.9591 13.0562C24.9591 6.17508 19.361 0.57666 12.4796 0.57666ZM16.2449 16.7103C15.2066 17.7483 13.8432 18.2674 12.4796 18.2674C11.1161 18.2674 9.75226 17.7483 8.71443 16.7103C6.63812 14.6342 6.63812 11.2561 8.71443 9.1798C9.71979 8.174 11.0572 7.62006 12.4796 7.62006C13.9019 7.62006 15.2391 8.17422 16.2449 9.1798C18.3212 11.2561 18.3212 14.6342 16.2449 16.7103Z" fill="white"/>
</svg>
