<svg width="35" height="36" viewBox="0 0 35 36" fill="none" xmlns="http://www.w3.org/2000/svg">
<path d="M0 3.87305C0 2.21619 1.34315 0.873047 3 0.873047H32C33.6569 0.873047 35 2.21619 35 3.87305V32.873C35 34.5299 33.6569 35.873 32 35.873H3C1.34315 35.873 0 34.5299 0 32.873V3.87305Z" fill="white"/>
<path d="M19.541 13.5297H21.0017V10.9857C20.7496 10.951 19.883 10.873 18.8737 10.873C16.7677 10.873 15.325 12.1977 15.325 14.6324V16.873H13.001V19.717H15.325V26.873H18.1743V19.7177H20.4043L20.7583 16.8737H18.1737V14.9144C18.1743 14.0924 18.3957 13.5297 19.541 13.5297Z" fill="#91B40D"/>
</svg>
