<svg width="272" height="107" viewBox="0 0 272 107" fill="none" xmlns="http://www.w3.org/2000/svg">
<path d="M125.577 51.5369L91.6812 17.6413C90.4351 16.3954 90.4351 14.3754 91.6812 13.1295L103.625 1.18501C104.871 -0.0610199 106.891 -0.0610199 108.137 1.18501L142.033 35.0806C143.279 36.3266 143.279 38.3466 142.033 39.5925L130.089 51.5369C128.843 52.7829 126.823 52.7829 125.577 51.5369Z" fill="white"/>
<path d="M87.1856 51.4294L72.2338 36.4775C70.9878 35.2314 70.9878 33.2114 72.2338 31.9655L84.1783 20.0211C85.4246 18.7755 87.4442 18.7755 88.6906 20.0211L103.641 34.9733C104.887 36.2191 104.887 38.239 103.641 39.4852L91.6974 51.4294C90.4512 52.6759 88.4313 52.6759 87.1856 51.4294Z" fill="white"/>
<path d="M200.778 50.5109C200.778 52.273 199.35 53.7014 197.587 53.7014H187.426C173.626 53.7014 160.651 48.3277 150.892 38.5689L129.964 17.6413C128.719 16.3953 128.719 14.3754 129.964 13.1293L141.908 1.18538C143.154 -0.0610809 145.175 -0.0610809 146.42 1.18501L167.348 22.1123C172.711 27.476 179.841 30.4292 187.426 30.4292H197.587C199.35 30.4292 200.778 31.8579 200.778 33.6202V50.5109Z" fill="white"/>
<path d="M31.2925 84.8318V105.49H25.926V91.1008L17.2355 102.688L8.54468 91.1008V105.49H3.1781V84.8318L0.755859 80.8901H6.73999L17.2355 94.8048L27.7307 80.8901H33.7145L31.2925 84.8318Z" fill="white"/>
<path d="M47.3455 100.552H62.7799V105.491H42.5015V80.8906H61.8779V85.7823H47.3455V91.766C49.4827 90.531 52.1892 90.3413 55.0388 90.3413H58.6483V95.233H55.0388C50.5272 95.233 49.4827 95.5179 47.3455 96.6575V100.552Z" fill="white"/>
<path d="M72.0422 105.49V80.8901H77.1235V100.551H90.1836V105.49H72.0422Z" fill="white"/>
<path d="M103.673 80.3203H108.944L122.242 105.49H116.875L114.928 101.786H111.983C105.905 101.786 99.5884 104.161 98.7808 105.205L98.6384 105.49H93.5095L105.287 83.4071L103.673 80.3203ZM112.601 97.3219L107.804 88.2037L101.963 99.459C103.53 98.6515 106.854 97.3219 111.936 97.3219H112.601Z" fill="white"/>
<path d="M139.625 80.8901H154.869C162.278 80.8901 167.312 85.1646 167.312 93.0004C167.312 100.646 162.372 105.49 154.869 105.49H144.848V85.782H141.809L139.625 80.8901ZM149.978 85.782V100.551H154.869C159.618 100.551 162.325 97.8444 162.325 93.0956C162.325 88.2988 159.618 85.782 154.869 85.782H149.978Z" fill="white"/>
<path d="M188.495 85.1165C183.746 85.1165 179.091 87.6338 179.091 93.1903C179.091 98.7465 183.841 101.264 188.542 101.264C193.196 101.264 197.898 98.3193 197.898 93.0002C197.898 87.4912 193.149 85.1165 188.495 85.1165Z" fill="white"/>
<path d="M231.523 98.0348C232.71 100.029 234.419 100.219 235.654 100.219H237.364V105.491H235.227C232.663 105.491 230.335 105.301 228.056 101.597L224.257 95.4226H223.924C220.078 95.4226 219.033 95.803 217.038 96.8475V105.491H212.052V80.8906H227.913C232.425 80.8906 235.654 84.0249 235.654 88.2992C235.654 92.0508 233.565 94.3781 230.003 95.4702L231.523 98.0348ZM227.913 90.531C229.385 90.531 230.668 89.7241 230.668 88.1566C230.668 85.9719 228.769 85.7823 227.059 85.7823H217.038V91.9562C218.938 90.9111 221.359 90.531 223.924 90.531H227.913Z" fill="white"/>
<path d="M252.753 80.3203H258.024L271.322 105.49H265.955L264.008 101.786H261.063C254.985 101.786 248.669 104.161 247.861 105.205L247.719 105.49H242.59L254.368 83.4071L252.753 80.3203ZM261.681 97.3219L256.885 88.2037L251.043 99.459C252.611 98.6515 255.935 97.3219 261.016 97.3219H261.681Z" fill="white"/>
</svg>
