<svg width="424" height="187" viewBox="0 0 424 187" fill="none" xmlns="http://www.w3.org/2000/svg">
<g opacity="0.15">
<path d="M36.0755 61.2617C32.8343 61.2617 29.6077 60.3413 27.1124 58.8791C26.2901 58.3952 26.0137 57.3366 26.4937 56.5145C26.9776 55.6925 28.0362 55.416 28.8585 55.8999C32.6705 58.1296 38.5525 58.8317 42.4232 55.8525C44.4092 54.3247 45.6097 52.1239 46.8829 49.7959C47.3121 49.0101 47.7559 48.1953 48.2396 47.3986C50.295 43.9902 52.5247 41.4802 55.0203 39.7633C48.5743 37.3624 40.899 35.4854 33.3216 37.1915C27.8509 38.4246 21.6121 42.175 22.9691 53.0333C23.0855 53.9791 22.4161 54.8413 21.4666 54.9613C20.5318 55.0814 19.6588 54.4084 19.5425 53.4626C18.251 43.1353 22.9944 35.9764 32.5616 33.8231C42.7103 31.5385 52.7247 34.9397 60.3128 38.1627C61.0694 38.4864 61.4952 39.3012 61.3279 40.1052C61.1605 40.9091 60.4547 41.4802 59.6363 41.4802H59.5999C59.1343 41.4802 58.5596 41.6585 57.9776 41.9858C55.4966 43.3791 53.2779 45.7363 51.1934 49.1848C50.7532 49.9158 50.3275 50.698 49.9166 51.4509C48.5269 53.9936 47.0901 56.6201 44.5291 58.5916C42.0848 60.4722 39.0765 61.2617 36.0755 61.2617Z" fill="#91B40D"/>
<path d="M50.2332 118.205C28.2183 118.205 10.3066 100.293 10.3066 78.2785C10.3066 61.5999 20.8193 46.5329 36.4648 40.7855C37.3596 40.4579 38.3528 40.9163 38.6802 41.8112C39.0112 42.7061 38.5527 43.6992 37.658 44.0302C23.3621 49.2794 13.7588 63.0441 13.7588 78.2785C13.7588 98.3874 30.1206 114.749 50.2332 114.749C70.3457 114.749 86.7078 98.3874 86.7078 78.2785C86.7078 73.0148 85.6128 67.9367 83.4485 63.186C83.0557 62.3165 83.4375 61.2944 84.3069 60.8979C85.1729 60.5014 86.1985 60.8834 86.5913 61.7527C88.9595 66.9582 90.1633 72.5165 90.1633 78.2785C90.1633 100.293 72.252 118.205 50.2332 118.205Z" fill="#91B40D"/>
<path d="M43.6457 99.7623C42.8091 99.7623 42.0742 99.1511 41.9397 98.2963C39.488 82.349 22.0674 74.6698 21.8889 74.5935C21.187 74.2916 20.7651 73.5604 20.8596 72.8001C20.9504 72.0399 21.5288 71.4323 22.282 71.305C22.7549 71.2251 33.9587 69.3953 41.9033 74.1606C42.7216 74.6517 42.9836 75.7102 42.4963 76.5286C42.0014 77.3471 40.9431 77.6128 40.1245 77.1217C36.5779 74.9936 32.1108 74.4152 28.6113 74.357C34.5481 78.1729 43.5112 85.7865 45.3552 97.7724C45.5009 98.7146 44.8532 99.5949 43.9113 99.7403C43.8203 99.755 43.7329 99.7623 43.6457 99.7623Z" fill="#91B40D"/>
<path d="M45.2787 96.9649L54.0055 101.814C54.8346 94.2731 58.5561 72.3964 74.7944 50.3124C46.1154 76.2923 45.1115 93.3056 45.2787 96.9649Z" fill="#91B40D"/>
<path d="M416.008 115.975H341.971C339.64 115.975 337.744 114.08 337.744 111.748V96.0337H341.091V111.748C341.091 112.232 341.484 112.629 341.971 112.629H416.008C416.492 112.629 416.888 112.232 416.888 111.748V96.0337H420.235V111.748C420.235 114.08 418.34 115.975 416.008 115.975Z" fill="#91B40D"/>
<path d="M341.091 91.7196H337.744V74.7283C337.744 72.3965 339.64 70.5012 341.971 70.5012H416.008C418.34 70.5012 420.235 72.3965 420.235 74.7283V91.7196H416.888V74.7283C416.888 74.2408 416.492 73.8479 416.008 73.8479H341.971C341.488 73.8479 341.091 74.2408 341.091 74.7283V91.7196Z" fill="#91B40D"/>
<rect x="341.575" y="92.2036" width="74.8335" height="3.34656" fill="#91B40D"/>
<path d="M354.736 82.3854C354.736 83.7968 353.594 84.9426 352.182 84.9426C350.774 84.9426 349.628 83.7968 349.628 82.3854C349.628 80.9777 350.774 79.8354 352.182 79.8354C353.594 79.8354 354.736 80.9777 354.736 82.3854Z" fill="#91B40D"/>
<path d="M354.736 104.088C354.736 105.499 353.594 106.641 352.182 106.641C350.774 106.641 349.628 105.499 349.628 104.088C349.628 102.676 350.774 101.534 352.182 101.534C353.594 101.534 354.736 102.676 354.736 104.088Z" fill="#91B40D"/>
<path d="M408.351 82.3854C408.351 83.7968 407.208 84.9426 405.797 84.9426C404.389 84.9426 403.243 83.7968 403.243 82.3854C403.243 80.9777 404.389 79.8354 405.797 79.8354C407.208 79.8354 408.351 80.9777 408.351 82.3854Z" fill="#91B40D"/>
<path d="M408.351 104.088C408.351 105.499 407.208 106.641 405.797 106.641C404.389 106.641 403.243 105.499 403.243 104.088C403.243 102.676 404.389 101.534 405.797 101.534C407.208 101.534 408.351 102.676 408.351 104.088Z" fill="#91B40D"/>
<path d="M346.707 68.9805C345.783 68.9805 345.034 68.2312 345.034 67.3073V64.8919C345.034 57.493 350.978 51.6399 360.177 49.9812L362.142 49.672C363.048 49.5339 363.913 50.1558 364.055 51.0689C364.197 51.9819 363.571 52.8367 362.658 52.9787L360.734 53.2806C353.128 54.6519 348.381 59.1044 348.381 64.8919V67.3073C348.381 68.2312 347.631 68.9805 346.707 68.9805Z" fill="#91B40D"/>
<path d="M384.302 68.9808V68.9808C383.378 68.9808 382.629 68.2315 382.629 67.3076V64.8922C382.629 60.4907 379.952 56.8821 375.088 54.7323C374.241 54.3576 373.859 53.3681 374.234 52.5243C374.608 51.6766 375.598 51.2946 376.442 51.6693C382.502 54.3503 385.976 59.1701 385.976 64.8922V67.3076C385.976 68.2315 385.226 68.9808 384.302 68.9808Z" fill="#91B40D"/>
<path d="M365.507 60.7415C363.343 60.7415 361.178 59.9848 359.37 58.4679C358.661 57.8714 358.57 56.8165 359.163 56.1071C359.76 55.4014 360.814 55.3068 361.524 55.9034C363.866 57.8714 367.147 57.8714 369.49 55.9034C370.199 55.3105 371.254 55.4014 371.851 56.1071C372.444 56.8165 372.353 57.8714 371.644 58.4679C369.836 59.9848 367.671 60.7415 365.507 60.7415Z" fill="#91B40D"/>
<path d="M365.485 59.6027C364.561 59.6027 363.812 58.8533 363.812 57.9294C363.812 54.4591 361.815 51.7237 358.472 50.6105C357.595 50.316 357.118 49.3701 357.413 48.4935C357.704 47.6168 358.65 47.1402 359.53 47.4349C364.233 49.0026 367.158 53.0223 367.158 57.9294C367.158 58.8533 366.409 59.6027 365.485 59.6027Z" fill="#91B40D"/>
<path d="M372.756 46.8893C371.159 46.8893 369.89 47.2749 368.969 48.0388C367.267 49.4465 367.162 51.8 367.158 52.2584V53.055C368.398 52.6403 369.843 52.4221 371.214 52.2148C376.103 51.4727 379.57 50.6505 380.545 47.0311C379.104 47.3476 377.26 47.5113 375.033 47.1112C374.212 46.962 373.451 46.8893 372.756 46.8893Z" fill="#91B40D"/>
<path d="M408.707 68.9007C408.613 68.9007 408.515 68.8935 408.416 68.8753C407.507 68.7153 406.899 67.8495 407.056 66.9365L407.474 64.5575C408.234 60.2251 406.219 56.2055 401.799 53.2481C401.032 52.7352 400.825 51.6948 401.338 50.9273C401.854 50.1598 402.891 49.9524 403.658 50.469C409.165 54.1539 411.759 59.5012 410.77 65.1358L410.355 67.5149C410.213 68.3297 409.504 68.9007 408.707 68.9007Z" fill="#91B40D"/>
<path d="M392.927 57.6565C390.214 57.6565 387.565 56.4707 385.674 54.219C385.077 53.5096 385.168 52.4547 385.878 51.8582C386.587 51.2653 387.642 51.3562 388.235 52.0619C390.206 54.4082 393.433 54.972 396.085 53.437C396.885 52.975 397.911 53.2478 398.373 54.0481C398.835 54.8484 398.562 55.8705 397.762 56.3362C396.227 57.2236 394.564 57.6565 392.927 57.6565Z" fill="#91B40D"/>
<path d="M391.789 56.4162C391.694 56.4162 391.596 56.4089 391.497 56.3907C390.588 56.2307 389.981 55.365 390.137 54.4519C390.737 51.0362 389.242 47.9951 386.143 46.3218C385.328 45.8816 385.026 44.8667 385.463 44.0555C385.903 43.2407 386.918 42.9388 387.733 43.3753C392.098 45.7325 394.28 50.1996 393.436 55.0302C393.295 55.8451 392.585 56.4162 391.789 56.4162Z" fill="#91B40D"/>
<path d="M399.439 44.9941C398.478 44.9941 397.638 45.1979 396.925 45.6053C395.008 46.7002 394.499 48.9993 394.415 49.4466L394.277 50.2324C395.576 50.036 397.034 50.0686 398.417 50.1051C403.36 50.2179 406.918 50.0033 408.5 46.6092C407.038 46.6711 405.186 46.5148 403.062 45.7363C401.713 45.2416 400.501 44.9941 399.439 44.9941Z" fill="#91B40D"/>
<path d="M223.29 187L223.185 186.996L213.599 186.425L202.897 186.996L202.806 187C197.798 187 192.901 184.799 189.376 180.965L186.921 178.292C177.172 167.684 171.803 153.592 171.803 138.609V133.534C171.803 118.885 183.723 107.267 202.17 103.938L206.259 103.302C207.211 103.156 208.125 103.808 208.274 104.772C208.427 105.735 207.765 106.641 206.801 106.79L202.759 107.423C185.859 110.472 175.335 120.479 175.335 133.534V138.609C175.335 152.705 180.373 165.949 189.522 175.902L191.977 178.575C194.865 181.718 198.696 183.457 202.759 183.468L213.508 182.897C213.574 182.893 213.643 182.893 213.708 182.897L223.341 183.468C227.404 183.453 231.227 181.718 234.119 178.575L236.574 175.902C245.723 165.949 250.761 152.705 250.761 138.609V133.534C250.761 123.702 244.61 115.342 233.879 110.595C232.988 110.202 232.584 109.158 232.977 108.267C233.37 107.372 234.414 106.972 235.309 107.365C247.375 112.702 254.294 122.239 254.294 133.534V138.609C254.294 153.592 248.924 167.684 239.172 178.292L236.72 180.965C233.192 184.799 228.299 187 223.29 187Z" fill="#91B40D"/>
<path d="M213.05 123.061C208.9 123.061 204.749 121.606 201.286 118.7C200.537 118.074 200.442 116.961 201.068 116.212C201.693 115.466 202.806 115.368 203.556 115.997C209.147 120.686 216.953 120.69 222.544 115.997C223.29 115.368 224.407 115.466 225.032 116.212C225.658 116.961 225.56 118.074 224.814 118.7C221.351 121.606 217.201 123.061 213.05 123.061Z" fill="#91B40D"/>
<path d="M213.002 120.675C212.028 120.675 211.238 119.886 211.238 118.911C211.238 110.835 206.597 104.466 198.823 101.876C197.899 101.567 197.397 100.566 197.706 99.6423C198.016 98.7184 199.012 98.2164 199.94 98.5256C209.085 101.574 214.767 109.384 214.767 118.911C214.767 119.886 213.978 120.675 213.002 120.675Z" fill="#91B40D"/>
<path d="M228.277 93.9749C224.501 93.9749 221.46 94.9172 219.198 96.7906C215.971 99.4678 214.792 103.811 214.767 106.983V111.276C217.426 109.828 221.3 109.242 225.298 108.635C234.821 107.194 245.534 105.575 246.833 93.6148C243.3 94.728 239.044 95.4847 233.373 94.4661C231.547 94.1387 229.848 93.9749 228.277 93.9749Z" fill="#91B40D"/>
<path d="M301.59 124.48C302.489 126.648 301.459 129.133 299.291 130.031C297.123 130.929 294.639 129.9 293.74 127.732C292.842 125.564 293.871 123.079 296.039 122.181C298.207 121.283 300.692 122.312 301.59 124.48Z" fill="#91B40D"/>
<path d="M5.87581 8.49418C3.70784 9.39262 1.22322 8.36308 0.324783 6.19523C-0.573655 4.02714 0.455886 1.54252 2.62385 0.644205C4.79158 -0.254355 7.27644 0.775064 8.17488 2.94316C9.07307 5.11112 8.04378 7.59562 5.87581 8.49418Z" fill="#91B40D"/>
<path d="M129.712 127.732C128.813 129.9 126.329 130.929 124.161 130.031C121.993 129.133 120.963 126.648 121.862 124.48C122.761 122.312 125.245 121.283 127.413 122.181C129.581 123.079 130.61 125.564 129.712 127.732Z" fill="#91B40D"/>
<path d="M417.576 8.49418C415.408 7.59562 414.378 5.11112 415.277 2.94316C416.175 0.775064 418.66 -0.254355 420.828 0.644205C422.996 1.54252 424.025 4.02714 423.127 6.19523C422.228 8.36308 419.744 9.39262 417.576 8.49418Z" fill="#91B40D"/>
</g>
</svg>
