<svg width="48" height="46" viewBox="0 0 48 46" fill="none" xmlns="http://www.w3.org/2000/svg">
<path d="M0.525391 30.7501C1.88266 29.0612 3.50787 27.7086 5.49576 26.8196C7.86234 25.7612 10.2794 25.7409 12.7485 26.4358C14.9333 27.0507 17.0086 27.913 19.0054 28.9855C20.0173 29.5291 21.0349 30.0786 22.0984 30.5041C22.7795 30.7766 23.5493 30.8278 24.3721 30.9972C24.8983 24.4532 24.8065 18.1177 21.9336 12.2166C20.8002 12.3056 19.7616 12.4808 18.729 12.4511C15.2399 12.3506 13.135 10.3691 12.1678 7.29047C11.5837 5.43176 11.5129 3.51244 11.5885 1.58337C11.6068 1.11411 11.8587 0.803685 12.3218 0.791561C15.1564 0.717694 17.9659 0.908936 20.5576 2.18429C23.5508 3.65734 24.5692 5.99223 23.737 9.24458C23.5969 9.79211 23.3524 10.3124 23.188 10.8548C23.1377 11.0209 23.1319 11.2523 23.2101 11.3977C24.9452 14.6279 25.6773 18.1262 26.0041 21.7352C26.026 21.9777 26.0521 22.2199 26.1548 22.4794C26.3104 22.1405 26.4791 21.8066 26.6127 21.4593C26.6477 21.3683 26.584 21.232 26.5482 21.1222C25.8841 19.0864 25.7457 17.0468 26.6471 15.0508C27.4764 13.2144 29.0084 12.1942 30.887 11.6376C32.5746 11.1376 34.3044 11.0619 36.0483 11.1583C36.5489 11.186 36.8569 11.4348 36.8635 11.9196C36.8999 14.5531 36.6929 17.1575 35.4488 19.5431C34.0382 22.2483 31.6318 23.1794 28.7333 22.2238C28.5313 22.1572 28.3278 22.0944 28.0899 22.0186C26.7569 24.8459 26.0949 27.8007 25.9485 30.9376H26.4577C28.196 30.9376 29.9344 30.9528 31.6725 30.9326C33.0105 30.9171 34.1058 31.3644 34.8966 32.4733C34.9213 32.508 34.9676 32.5273 35.0183 32.5645C36.9151 30.3783 38.809 28.1939 40.7048 26.0112C41.4396 25.165 42.1335 24.2834 43.1305 23.7026C44.266 23.0413 45.4863 22.7485 46.7855 22.7448C47.6625 22.7423 47.9828 23.2354 47.6293 24.0406C45.8206 28.1609 43.9994 32.2756 42.2 36.4C41.2393 38.6024 39.7632 40.3324 37.6476 41.4902C37.1917 41.7396 36.719 41.9947 36.222 42.1267C33.7778 42.7757 31.4852 43.8254 29.1453 44.7489C27.7514 45.2989 26.3361 45.7227 24.8283 45.8223C22.7424 45.9601 20.7688 45.5555 18.8601 44.7306C16.0552 43.5184 13.2573 42.2873 10.4256 41.1402C8.16373 40.224 5.7767 39.7676 3.35211 39.5173C2.69452 39.4494 2.03708 39.3789 1.37814 39.3262C0.989105 39.2952 0.731598 39.0852 0.525391 38.7816V30.7501ZM2.09769 37.8373C2.51587 37.8797 2.88226 37.9165 3.24857 37.9541C5.93433 38.2303 8.57895 38.7215 11.0861 39.7423C13.9306 40.9002 16.7423 42.1389 19.5631 43.3544C21.4096 44.1502 23.3165 44.4801 25.3241 44.2343C26.748 44.06 28.0473 43.5107 29.3651 43.0008C31.1109 42.3256 32.8298 41.547 34.6243 41.0394C37.4973 40.2266 39.5599 38.5723 40.7609 35.8435C42.3755 32.1741 43.9875 28.5036 45.6001 24.8332C45.6591 24.6988 45.7117 24.5617 45.7735 24.4109C44.7993 24.4344 43.4959 25.129 42.7244 26.0195C40.6694 28.3914 38.6155 30.7641 36.562 33.1373C36.0068 33.7791 35.5121 34.386 35.337 35.3176C35.0239 36.9823 33.5879 37.9408 31.7977 37.9443C28.5668 37.9507 25.3356 37.9263 22.105 37.9587C21.1729 37.9681 20.24 38.1086 19.3124 38.2275C18.8619 38.2853 18.4228 38.4322 17.9406 38.5479C17.7691 38.0694 17.6068 37.6158 17.4288 37.1188C17.9143 36.9859 18.3347 36.8139 18.7694 36.7627C20.0334 36.614 21.3019 36.431 22.571 36.4104C25.6627 36.3602 28.7557 36.3886 31.8481 36.3977C32.6162 36.4 33.2373 36.1328 33.6522 35.4849C34.0461 34.8696 34.0776 34.2031 33.7404 33.5538C33.3864 32.872 32.8056 32.4986 32.0295 32.4954C29.691 32.4859 27.3524 32.4986 25.0139 32.4832C24.4006 32.4791 23.7839 32.4341 23.1754 32.3565C21.6217 32.1583 20.2366 31.5149 18.9059 30.7163C16.9739 29.5569 14.9217 28.6651 12.7538 28.041C11.3853 27.6471 10.0044 27.3599 8.57224 27.5571C6.01212 27.9099 3.99097 29.2406 2.27261 31.0933C2.14642 31.2293 2.08377 31.4739 2.0824 31.6687C2.0686 33.5764 2.07361 35.4842 2.07504 37.3921C2.07504 37.5276 2.08841 37.663 2.09769 37.8373ZM22.0055 9.53291C23.0137 6.96078 22.4454 4.83515 20.0329 3.62959C18.5408 2.88388 16.9318 2.5636 15.2868 2.40759C14.574 2.33995 13.8564 2.32296 13.0969 2.28059C13.076 3.86841 13.1854 5.36016 13.6313 6.81259C14.3149 9.03906 15.684 10.5306 18.0814 10.8656C19.0262 10.9976 19.9745 10.9645 20.9702 10.7107C20.7157 10.392 20.5056 10.1106 20.2767 9.84537C19.2984 8.7122 18.1292 7.83417 16.7696 7.2013C16.2618 6.96497 16.105 6.52403 16.3208 6.11073C16.5258 5.71771 16.9558 5.59966 17.4372 5.82387C17.7707 5.97931 18.0991 6.14846 18.419 6.33041C19.8284 7.13208 20.9841 8.22379 22.0055 9.53291ZM35.3444 12.624C34.5099 12.6713 33.7555 12.6789 33.0106 12.767C32.4034 12.839 31.7949 12.9652 31.2084 13.14C28.192 14.0392 27.1353 16.5955 27.7349 19.4072C28.028 19.0008 28.2945 18.6096 28.5832 18.2355C29.3951 17.1829 30.2997 16.2237 31.4187 15.487C31.9276 15.152 32.3595 15.1883 32.6317 15.5895C32.8868 15.9655 32.744 16.3698 32.3174 16.7374C31.632 17.328 30.9343 17.9156 30.3264 18.5817C29.7668 19.1952 29.3188 19.9104 28.8051 20.603C31.0762 21.4913 32.8681 20.9876 33.9086 19.1587C35.0428 17.1652 35.2824 14.9573 35.3444 12.624Z" fill="#91B40D"/>
</svg>
