<svg width="342" height="151" viewBox="0 0 342 151" fill="none" xmlns="http://www.w3.org/2000/svg">
<g opacity="0.22">
<path d="M29.1316 49.1962C26.5203 49.1962 23.9207 48.4546 21.9103 47.2766C21.2478 46.8868 21.0251 46.0339 21.4119 45.3715C21.8017 44.7092 22.6546 44.4865 23.317 44.8763C26.3883 46.6728 31.1273 47.2385 34.2458 44.8382C35.8459 43.6072 36.8131 41.8341 37.8388 39.9585C38.1846 39.3254 38.5422 38.6689 38.9319 38.0271C40.5879 35.281 42.3843 33.2588 44.3949 31.8756C39.2016 29.9412 33.0178 28.429 26.9129 29.8035C22.5053 30.7971 17.4789 33.8186 18.5722 42.5668C18.666 43.3288 18.1266 44.0234 17.3617 44.1201C16.6085 44.2169 15.9052 43.6747 15.8116 42.9127C14.771 34.5923 18.5926 28.8246 26.3006 27.0897C34.4771 25.2491 42.5454 27.9893 48.659 30.586C49.2685 30.8468 49.6115 31.5033 49.4768 32.151C49.3418 32.7987 48.7732 33.2588 48.1139 33.2588H48.0846C47.7094 33.2588 47.2464 33.4025 46.7776 33.6662C44.7787 34.7887 42.9911 36.6878 41.3117 39.4662C40.9571 40.0552 40.614 40.6853 40.283 41.2919C39.1634 43.3405 38.0058 45.4566 35.9425 47.045C33.9731 48.5602 31.5494 49.1962 29.1316 49.1962Z" fill="#1A5221"/>
<path d="M40.538 95.0739C22.8012 95.0739 8.37036 80.643 8.37036 62.9062C8.37036 49.4688 16.8401 37.3297 29.4453 32.6992C30.1662 32.4353 30.9663 32.8046 31.2301 33.5256C31.4968 34.2466 31.1274 35.0466 30.4065 35.3134C18.8887 39.5424 11.1516 50.6323 11.1516 62.9062C11.1516 79.1073 24.3339 92.2897 40.538 92.2897C56.7421 92.2897 69.9245 79.1073 69.9245 62.9062C69.9245 58.6654 69.0424 54.5741 67.2986 50.7466C66.9821 50.0461 67.2897 49.2226 67.9902 48.9032C68.6879 48.5837 69.5142 48.8915 69.8307 49.5919C71.7386 53.7858 72.7086 58.264 72.7086 62.9062C72.7086 80.643 58.2779 95.0739 40.538 95.0739Z" fill="#1A5221"/>
<path d="M35.2305 80.2151C34.5565 80.2151 33.9644 79.7227 33.8561 79.034C31.8808 66.1857 17.8455 59.9988 17.7017 59.9373C17.1362 59.6941 16.7963 59.1049 16.8724 58.4925C16.9456 57.88 17.4116 57.3905 18.0184 57.2879C18.3994 57.2235 27.426 55.7493 33.8268 59.5886C34.486 59.9842 34.6971 60.837 34.3045 61.4964C33.9058 62.1558 33.0531 62.3698 32.3936 61.9742C29.5362 60.2597 25.9372 59.7937 23.1178 59.7468C27.9008 62.8212 35.1222 68.9552 36.6078 78.6119C36.7253 79.3709 36.2034 80.0802 35.4446 80.1973C35.3712 80.2092 35.3008 80.2151 35.2305 80.2151Z" fill="#1A5221"/>
<path d="M36.5463 77.9613L43.5772 81.868C44.2452 75.7926 47.2435 58.1672 60.3262 40.3748C37.2204 61.306 36.4116 75.0131 36.5463 77.9613Z" fill="#1A5221"/>
<path d="M335.232 93.2775H275.583C273.704 93.2775 272.177 91.7505 272.177 89.872V77.2112H274.874V89.872C274.874 90.2617 275.19 90.5813 275.583 90.5813H335.232C335.622 90.5813 335.941 90.2617 335.941 89.872V77.2112H338.638V89.872C338.638 91.7505 337.111 93.2775 335.232 93.2775Z" fill="#1A5221"/>
<path d="M274.874 73.7353H272.177V60.0459C272.177 58.1672 273.704 56.6403 275.583 56.6403H335.232C337.111 56.6403 338.638 58.1672 338.638 60.0459V73.7353H335.941V60.0459C335.941 59.6532 335.622 59.3366 335.232 59.3366H275.583C275.193 59.3366 274.874 59.6532 274.874 60.0459V73.7353Z" fill="#1A5221"/>
<rect x="275.263" y="74.1251" width="60.2911" height="2.69623" fill="#1A5221"/>
<path d="M285.867 66.215C285.867 67.3521 284.947 68.2753 283.809 68.2753C282.675 68.2753 281.752 67.3521 281.752 66.215C281.752 65.0809 282.675 64.1606 283.809 64.1606C284.947 64.1606 285.867 65.0809 285.867 66.215Z" fill="#1A5221"/>
<path d="M285.867 83.6997C285.867 84.8369 284.947 85.7571 283.809 85.7571C282.675 85.7571 281.752 84.8369 281.752 83.6997C281.752 82.5626 282.675 81.6424 283.809 81.6424C284.947 81.6424 285.867 82.5626 285.867 83.6997Z" fill="#1A5221"/>
<path d="M329.063 66.215C329.063 67.3521 328.143 68.2753 327.006 68.2753C325.871 68.2753 324.948 67.3521 324.948 66.215C324.948 65.0809 325.871 64.1606 327.006 64.1606C328.143 64.1606 329.063 65.0809 329.063 66.215Z" fill="#1A5221"/>
<path d="M329.063 83.6997C329.063 84.8369 328.143 85.7571 327.006 85.7571C325.871 85.7571 324.948 84.8369 324.948 83.6997C324.948 82.5626 325.871 81.6424 327.006 81.6424C328.143 81.6424 329.063 82.5626 329.063 83.6997Z" fill="#1A5221"/>
<path d="M279.399 55.4153C278.654 55.4153 278.051 54.8116 278.051 54.0672V52.1212C278.051 46.1601 282.84 41.4445 290.251 40.1081L291.834 39.859C292.564 39.7477 293.261 40.2488 293.375 40.9844C293.49 41.7199 292.986 42.4087 292.25 42.5231L290.7 42.7663C284.571 43.8711 280.747 47.4584 280.747 52.1212V54.0672C280.747 54.8116 280.143 55.4153 279.399 55.4153Z" fill="#1A5221"/>
<path d="M309.688 55.4153V55.4153C308.943 55.4153 308.34 54.8116 308.34 54.0672V52.1212C308.34 48.575 306.183 45.6676 302.264 43.9356C301.582 43.6338 301.274 42.8366 301.576 42.1567C301.877 41.4738 302.675 41.166 303.355 41.4679C308.237 43.6279 311.036 47.5111 311.036 52.1212V54.0672C311.036 54.8116 310.432 55.4153 309.688 55.4153Z" fill="#1A5221"/>
<path d="M294.545 48.7772C292.801 48.7772 291.057 48.1675 289.6 46.9455C289.029 46.4648 288.956 45.6149 289.433 45.0434C289.914 44.4748 290.764 44.3986 291.336 44.8793C293.223 46.4648 295.866 46.4648 297.754 44.8793C298.325 44.4016 299.175 44.4748 299.656 45.0434C300.134 45.6149 300.06 46.4648 299.489 46.9455C298.032 48.1675 296.288 48.7772 294.545 48.7772Z" fill="#1A5221"/>
<path d="M294.527 47.8598C293.783 47.8598 293.179 47.256 293.179 46.5116C293.179 43.7157 291.57 41.5119 288.877 40.615C288.17 40.3777 287.786 39.6156 288.024 38.9094C288.258 38.203 289.02 37.8191 289.73 38.0565C293.519 39.3196 295.875 42.5581 295.875 46.5116C295.875 47.256 295.272 47.8598 294.527 47.8598Z" fill="#1A5221"/>
<path d="M300.386 37.617C299.099 37.617 298.076 37.9277 297.335 38.5431C295.963 39.6773 295.878 41.5735 295.875 41.9427V42.5846C296.875 42.2505 298.038 42.0746 299.143 41.9077C303.082 41.3098 305.875 40.6473 306.66 37.7313C305.5 37.9863 304.014 38.1182 302.22 37.7958C301.558 37.6756 300.945 37.617 300.386 37.617Z" fill="#1A5221"/>
<path d="M329.35 55.3508C329.274 55.3508 329.195 55.345 329.116 55.3303C328.383 55.2014 327.893 54.5038 328.02 53.7683L328.357 51.8515C328.969 48.3611 327.345 45.1226 323.785 42.7399C323.166 42.3267 322.999 41.4885 323.412 40.8701C323.829 40.2517 324.664 40.0846 325.282 40.5009C329.719 43.4697 331.809 47.7778 331.012 52.3175L330.678 54.2342C330.563 54.8907 329.992 55.3508 329.35 55.3508Z" fill="#1A5221"/>
<path d="M316.637 46.2918C314.45 46.2918 312.317 45.3364 310.793 43.5223C310.312 42.9508 310.385 42.1009 310.957 41.6202C311.528 41.1426 312.378 41.2158 312.856 41.7844C314.444 43.6748 317.044 44.129 319.181 42.8923C319.825 42.5201 320.652 42.7398 321.024 43.3846C321.396 44.0294 321.176 44.8529 320.532 45.2281C319.295 45.9431 317.956 46.2918 316.637 46.2918Z" fill="#1A5221"/>
<path d="M315.719 45.2925C315.643 45.2925 315.564 45.2866 315.485 45.2719C314.752 45.143 314.263 44.4455 314.389 43.7098C314.873 40.958 313.668 38.5078 311.171 37.1597C310.514 36.805 310.271 35.9873 310.623 35.3338C310.977 34.6773 311.795 34.4341 312.452 34.7858C315.969 36.6849 317.727 40.2839 317.047 44.1758C316.933 44.8323 316.361 45.2925 315.719 45.2925Z" fill="#1A5221"/>
<path d="M321.883 36.09C321.109 36.09 320.432 36.2541 319.858 36.5824C318.313 37.4645 317.903 39.3168 317.835 39.6772L317.724 40.3103C318.77 40.1521 319.945 40.1783 321.059 40.2077C325.042 40.2986 327.908 40.1257 329.183 37.3912C328.005 37.4411 326.513 37.3151 324.802 36.6879C323.715 36.2893 322.739 36.09 321.883 36.09Z" fill="#1A5221"/>
<path d="M179.965 150.5L179.88 150.497L172.158 150.037L163.535 150.497L163.462 150.5C159.427 150.5 155.482 148.727 152.642 145.638L150.664 143.484C142.809 134.938 138.483 123.584 138.483 111.512V107.424C138.483 95.622 148.087 86.2612 162.949 83.5797L166.243 83.0667C167.011 82.9496 167.747 83.4741 167.867 84.2508C167.99 85.0274 167.457 85.7571 166.68 85.8773L163.424 86.3872C149.808 88.8432 141.329 96.9057 141.329 107.424V111.512C141.329 122.869 145.388 133.54 152.759 141.558L154.737 143.713C157.064 146.245 160.15 147.645 163.424 147.654L172.084 147.194C172.137 147.191 172.193 147.191 172.245 147.194L180.006 147.654C183.279 147.643 186.36 146.245 188.69 143.713L190.668 141.558C198.039 133.54 202.098 122.869 202.098 111.512V107.424C202.098 99.5023 197.142 92.7674 188.496 88.9428C187.778 88.6263 187.453 87.7853 187.769 87.0672C188.086 86.3462 188.927 86.0238 189.648 86.3403C199.369 90.6398 204.944 98.3242 204.944 107.424V111.512C204.944 123.584 200.618 134.938 192.76 143.484L190.785 145.638C187.942 148.727 184.001 150.5 179.965 150.5Z" fill="#1A5221"/>
<path d="M171.715 98.9865C168.371 98.9865 165.027 97.8143 162.237 95.4725C161.633 94.9684 161.557 94.0716 162.061 93.4679C162.565 92.8671 163.462 92.788 164.066 93.295C168.57 97.0728 174.86 97.0756 179.364 93.295C179.965 92.788 180.864 92.8671 181.369 93.4679C181.873 94.0716 181.793 94.9684 181.193 95.4725C178.403 97.8143 175.059 98.9865 171.715 98.9865Z" fill="#1A5221"/>
<path d="M171.677 97.0639C170.891 97.0639 170.255 96.428 170.255 95.6425C170.255 89.1363 166.516 84.0046 160.253 81.9179C159.508 81.6688 159.104 80.8628 159.353 80.1184C159.602 79.374 160.405 78.9696 161.152 79.2187C168.52 81.6747 173.098 87.9669 173.098 95.6425C173.098 96.428 172.462 97.0639 171.677 97.0639Z" fill="#1A5221"/>
<path d="M183.983 75.5523C180.941 75.5523 178.491 76.3114 176.668 77.8208C174.068 79.9778 173.119 83.4771 173.098 86.0327V89.4909C175.241 88.3245 178.362 87.8526 181.583 87.3632C189.255 86.2026 197.886 84.8984 198.933 75.2622C196.087 76.159 192.658 76.7687 188.089 75.9481C186.618 75.6843 185.249 75.5523 183.983 75.5523Z" fill="#1A5221"/>
<path d="M243.049 100.129C243.773 101.876 242.943 103.878 241.197 104.602C239.45 105.326 237.448 104.496 236.724 102.749C236 101.003 236.83 99.001 238.576 98.2772C240.323 97.5534 242.325 98.3827 243.049 100.129Z" fill="#1A5221"/>
<path d="M4.80063 6.68306C3.05392 7.40688 1.05215 6.57741 0.328337 4.83086C-0.39554 3.08406 0.433927 1.08229 2.18063 0.358535C3.92709 -0.365403 5.92904 0.463974 6.65292 2.21077C7.37655 3.95741 6.54727 5.95909 4.80063 6.68306Z" fill="#1A5221"/>
<path d="M104.572 102.749C103.848 104.496 101.846 105.326 100.099 104.602C98.3527 103.878 97.5235 101.876 98.2473 100.129C98.9713 98.3827 100.973 97.5534 102.72 98.2772C104.466 99.001 105.296 101.003 104.572 102.749Z" fill="#1A5221"/>
<path d="M336.495 6.68306C334.748 5.95909 333.919 3.95741 334.643 2.21077C335.367 0.463974 337.369 -0.365403 339.115 0.358535C340.862 1.08229 341.692 3.08406 340.968 4.83086C340.244 6.57741 338.242 7.40688 336.495 6.68306Z" fill="#1A5221"/>
</g>
</svg>
