<svg width="54" height="46" viewBox="0 0 54 46" fill="none" xmlns="http://www.w3.org/2000/svg">
<path d="M53.5038 17.958C53.4166 18.3566 53.3331 18.7561 53.2413 19.1538C52.5602 22.1092 51.0118 24.6226 49.2082 26.9976C46.2375 30.91 42.639 34.2032 38.8973 37.3485C35.37 40.3138 31.6505 43.0225 27.8188 45.58C27.3053 45.9228 26.8353 46.0036 26.2947 45.643C19.7528 41.2769 13.5387 36.5052 8.07652 30.8172C5.68102 28.3227 3.55479 25.6224 1.97142 22.5159C0.22435 19.0881 0.140854 15.565 1.28905 11.9767C2.54796 8.04313 4.95848 4.98039 8.53148 2.89213C11.5932 1.10233 14.907 0.457558 18.4308 0.939003C21.5622 1.36662 24.2895 2.66142 26.647 4.75456C26.7499 4.84586 26.8583 4.9307 26.9895 5.03971C27.5406 4.60319 28.0743 4.14628 28.642 3.73661C31.8867 1.39408 35.5207 0.414467 39.48 0.898232C44.4925 1.51041 48.3308 4.05961 51.035 8.3079C52.4289 10.4977 53.1969 12.9087 53.4265 15.493C53.4383 15.626 53.4773 15.7564 53.5038 15.8881V17.958ZM16.4662 2.84611L16.438 2.70219C15.1045 2.94352 13.7312 3.05558 12.4448 3.45023C8.19371 4.75382 5.26488 7.56278 3.60045 11.665C1.99327 15.6265 2.3297 19.4192 4.62047 23.07C6.12425 25.4666 7.89537 27.6359 9.8485 29.6598C14.9131 34.9075 20.6639 39.3219 26.6742 43.4172C26.9313 43.5923 27.1033 43.5789 27.3508 43.4101C33.3435 39.3208 39.0865 34.9246 44.14 29.6894C46.1664 27.5904 48.0596 25.3763 49.5206 22.8302C50.55 21.0364 51.4112 19.1665 51.4189 17.0536C51.4333 13.1554 50.1077 9.74564 47.3752 6.9578C42.0629 1.53776 33.6606 1.4777 28.2512 6.77042C27.1422 7.85551 26.8723 7.85526 25.7565 6.76225C23.1748 4.23319 20.0663 2.95622 16.4662 2.84611Z" fill="#91B40D"/>
</svg>
