<svg width="17" height="16" viewBox="0 0 17 16" fill="none" xmlns="http://www.w3.org/2000/svg">
<path d="M9.14089 16C9.08792 16 9.03493 16 8.98158 15.9998C7.72745 16.0028 6.56864 15.9709 5.44166 15.9023C4.40847 15.8395 3.46534 15.4824 2.71412 14.8699C1.98928 14.2788 1.49428 13.4796 1.24293 12.4947C1.02418 11.6373 1.01259 10.7956 1.00146 9.98155C0.993398 9.39745 0.985117 8.70529 0.983398 8.00144C0.985117 7.29466 0.993398 6.6025 1.00146 6.01841C1.01259 5.20444 1.02418 4.36275 1.24293 3.50521C1.49428 2.52033 1.98928 1.72114 2.71412 1.13008C3.46534 0.517546 4.40847 0.160482 5.44179 0.0976071C6.56873 0.0291381 7.7278 -0.00286201 8.98464 0.000200502C10.2392 -0.00248701 11.3976 0.0291381 12.5246 0.0976071C13.5578 0.160482 14.5009 0.517546 15.2521 1.13008C15.9771 1.72114 16.472 2.52033 16.7233 3.50521C16.9421 4.36262 16.9537 5.20444 16.9648 6.01841C16.9728 6.6025 16.9813 7.29466 16.9828 7.99851V8.00144C16.9813 8.70529 16.9728 9.39745 16.9648 9.98155C16.9537 10.7955 16.9422 11.6372 16.7233 12.4947C16.472 13.4796 15.9771 14.2788 15.2521 14.8699C14.5009 15.4824 13.5578 15.8395 12.5246 15.9023C11.4453 15.968 10.3367 16 9.14089 16ZM8.98158 14.7497C10.2154 14.7527 11.3482 14.7216 12.4487 14.6547C13.2299 14.6072 13.9073 14.3536 14.4622 13.9011C14.9751 13.4828 15.3284 12.9056 15.5121 12.1856C15.6943 11.4719 15.7048 10.7055 15.7149 9.96445C15.7228 9.38426 15.7311 8.69701 15.7328 7.99998C15.7311 7.30282 15.7228 6.61569 15.7149 6.0355C15.7048 5.2944 15.6943 4.52803 15.5121 3.81418C15.3284 3.09421 14.9751 2.51705 14.4622 2.09871C13.9073 1.64633 13.2299 1.39277 12.4487 1.3453C11.3482 1.27827 10.2154 1.24739 8.98452 1.25008C7.75101 1.24714 6.61807 1.27827 5.5176 1.3453C4.73635 1.39277 4.05897 1.64633 3.50403 2.09871C2.99109 2.51705 2.63781 3.09421 2.45412 3.81418C2.27197 4.52803 2.26146 5.29428 2.25134 6.0355C2.2434 6.61619 2.23512 7.30382 2.2334 8.00144C2.23512 8.69601 2.2434 9.38376 2.25134 9.96445C2.26146 10.7055 2.27197 11.4719 2.45412 12.1856C2.63781 12.9056 2.99109 13.4828 3.50403 13.9011C4.05897 14.3535 4.73635 14.6071 5.5176 14.6545C6.61807 14.7216 7.75123 14.7528 8.98158 14.7497ZM8.9518 11.9062C6.79798 11.9062 5.04554 10.1539 5.04554 7.99998C5.04554 5.84603 6.79798 4.09371 8.9518 4.09371C11.1057 4.09371 12.8581 5.84603 12.8581 7.99998C12.8581 10.1539 11.1057 11.9062 8.9518 11.9062ZM8.9518 5.34372C7.4872 5.34372 6.29554 6.53538 6.29554 7.99998C6.29554 9.46458 7.4872 10.6562 8.9518 10.6562C10.4165 10.6562 11.6081 9.46458 11.6081 7.99998C11.6081 6.53538 10.4165 5.34372 8.9518 5.34372ZM13.2956 2.84371C12.7779 2.84371 12.3581 3.2634 12.3581 3.78121C12.3581 4.29903 12.7779 4.71872 13.2956 4.71872C13.8134 4.71872 14.2331 4.29903 14.2331 3.78121C14.2331 3.2634 13.8134 2.84371 13.2956 2.84371Z" fill="#91B40D"/>
</svg>
