<svg width="35" height="36" viewBox="0 0 35 36" fill="none" xmlns="http://www.w3.org/2000/svg">
<path d="M0 3.87305C0 2.21619 1.34315 0.873047 3 0.873047H32C33.6569 0.873047 35 2.21619 35 3.87305V32.873C35 34.5299 33.6569 35.873 32 35.873H3C1.34315 35.873 0 34.5299 0 32.873V3.87305Z" fill="white"/>
<path d="M18.1575 26.873C18.1045 26.873 18.0515 26.873 17.9982 26.8728C16.7441 26.8759 15.5852 26.844 14.4583 26.7754C13.4251 26.7125 12.4819 26.3555 11.7307 25.7429C11.0059 25.1519 10.5109 24.3527 10.2595 23.3678C10.0408 22.5104 10.0292 21.6687 10.0181 20.8546C10.01 20.2705 10.0017 19.5783 10 18.8745C10.0017 18.1677 10.01 17.4756 10.0181 16.8915C10.0292 16.0775 10.0408 15.2358 10.2595 14.3783C10.5109 13.3934 11.0059 12.5942 11.7307 12.0031C12.4819 11.3906 13.4251 11.0335 14.4584 10.9707C15.5853 10.9022 16.7444 10.8702 18.0012 10.8732C19.2558 10.8706 20.4142 10.9022 21.5412 10.9707C22.5744 11.0335 23.5175 11.3906 24.2687 12.0031C24.9937 12.5942 25.4886 13.3934 25.7399 14.3783C25.9587 15.2357 25.9703 16.0775 25.9814 16.8915C25.9894 17.4756 25.9979 18.1677 25.9994 18.8716V18.8745C25.9979 19.5783 25.9894 20.2705 25.9814 20.8546C25.9703 21.6686 25.9588 22.5103 25.7399 23.3678C25.4886 24.3527 24.9937 25.1519 24.2687 25.7429C23.5175 26.3555 22.5744 26.7125 21.5412 26.7754C20.4619 26.8411 19.3533 26.873 18.1575 26.873ZM17.9982 25.6228C19.232 25.6257 20.3648 25.5946 21.4653 25.5277C22.2465 25.4802 22.9239 25.2267 23.4788 24.7742C23.9917 24.3558 24.345 23.7787 24.5287 23.0587C24.7109 22.345 24.7214 21.5786 24.7315 20.8375C24.7394 20.2573 24.7477 19.5701 24.7494 18.873C24.7477 18.1759 24.7394 17.4887 24.7315 16.9085C24.7214 16.1675 24.7109 15.4011 24.5287 14.6872C24.345 13.9673 23.9917 13.3901 23.4788 12.9718C22.9239 12.5194 22.2465 12.2658 21.4653 12.2183C20.3648 12.1513 19.232 12.1204 18.0011 12.1231C16.7676 12.1202 15.6347 12.1513 14.5342 12.2183C13.7529 12.2658 13.0756 12.5194 12.5206 12.9718C12.0077 13.3901 11.6544 13.9673 11.4707 14.6872C11.2886 15.4011 11.2781 16.1673 11.2679 16.9085C11.26 17.4892 11.2517 18.1769 11.25 18.8745C11.2517 19.5691 11.26 20.2568 11.2679 20.8375C11.2781 21.5786 11.2886 22.345 11.4707 23.0587C11.6544 23.7787 12.0077 24.3558 12.5206 24.7742C13.0756 25.2266 13.7529 25.4801 14.5342 25.5276C15.6347 25.5946 16.7678 25.6259 17.9982 25.6228ZM17.9684 22.7793C15.8146 22.7793 14.0621 21.027 14.0621 18.873C14.0621 16.7191 15.8146 14.9668 17.9684 14.9668C20.1223 14.9668 21.8747 16.7191 21.8747 18.873C21.8747 21.027 20.1223 22.7793 17.9684 22.7793ZM17.9684 16.2168C16.5038 16.2168 15.3121 17.4084 15.3121 18.873C15.3121 20.3376 16.5038 21.5293 17.9684 21.5293C19.4331 21.5293 20.6247 20.3376 20.6247 18.873C20.6247 17.4084 19.4331 16.2168 17.9684 16.2168ZM22.3122 13.7168C21.7945 13.7168 21.3747 14.1364 21.3747 14.6543C21.3747 15.1721 21.7945 15.5918 22.3122 15.5918C22.83 15.5918 23.2497 15.1721 23.2497 14.6543C23.2497 14.1364 22.83 13.7168 22.3122 13.7168Z" fill="#91B40D"/>
</svg>
