<svg width="84" height="7" viewBox="0 0 84 7" fill="none" xmlns="http://www.w3.org/2000/svg">
<path d="M82.5649 2.87598C80.8789 1.54907 79.0908 0.203857 75.6167 0.203857C72.3252 0.203857 70.5581 1.41309 68.9326 2.66113C67.3071 1.41309 65.5396 0.203857 62.2485 0.203857C58.7744 0.203857 56.9858 1.54907 55.3003 2.87598C53.5938 1.54907 51.8257 0.203857 48.3521 0.203857C45 0.203857 43.2119 1.4519 41.5874 2.73901C39.7583 1.31519 37.9092 0.203857 34.5571 0.203857C31.2661 0.203857 29.499 1.41309 27.873 2.66113C26.2485 1.41309 24.4805 0.203857 21.1895 0.203857C17.7158 0.203857 15.9478 1.54907 14.2412 2.87598C12.5342 1.54907 10.7666 0.203857 7.29297 0.203857C4.00195 0.203857 2.23389 1.41309 0.608887 2.66113L0 3.14893L0.608887 3.61719C2.29492 4.9436 4.08252 6.28906 7.55713 6.28906C10.8481 6.28906 12.6157 5.07983 14.2412 3.81226C15.8662 5.07983 17.6343 6.28906 20.9248 6.28906C24.3989 6.28906 26.187 4.9436 27.873 3.61719C29.5801 4.9436 31.3472 6.28906 34.8218 6.28906C38.1733 6.28906 39.9614 5.02148 41.5874 3.73389C43.415 5.15771 45.2637 6.28906 48.6162 6.28906C51.9072 6.28906 53.6748 5.07983 55.3003 3.81226C56.9258 5.07983 58.6938 6.28906 61.9844 6.28906C65.459 6.28906 67.2461 4.9436 68.9326 3.61719C70.6387 4.9436 72.4067 6.28906 75.8804 6.28906C79.1724 6.28906 80.939 5.07983 82.5649 3.81226L83.1743 3.34375L82.5649 2.87598ZM7.55713 5.52832C4.42822 5.52832 2.82324 4.39697 1.21777 3.14893C2.7417 1.97852 4.34717 0.94458 7.29297 0.94458C10.4214 0.94458 12.0264 2.0957 13.6313 3.34375C12.1074 4.51416 10.5029 5.52832 7.55713 5.52832ZM20.9248 5.52832C17.979 5.52832 16.3745 4.51416 14.8506 3.34375C16.4556 2.0957 18.0605 0.94458 21.1895 0.94458C24.1353 0.94458 25.7402 1.97852 27.2637 3.14893C25.6587 4.39697 24.0537 5.52832 20.9248 5.52832ZM34.8218 5.52832C31.7134 5.52832 30.0879 4.39697 28.4834 3.14893C30.0063 1.97852 31.6118 0.94458 34.5571 0.94458C37.625 0.94458 39.3115 1.92017 41.0381 3.24658C39.4741 4.45581 37.8691 5.52832 34.8218 5.52832ZM48.6162 5.52832C45.5488 5.52832 43.8623 4.55322 42.1357 3.24658C43.6992 2.03687 45.3047 0.964355 48.3521 0.964355C51.4604 0.964355 53.0859 2.0957 54.6909 3.34375C53.1675 4.51416 51.562 5.52832 48.6162 5.52832ZM61.9844 5.52832C59.0386 5.52832 57.4336 4.51416 55.9097 3.34375C57.5146 2.0957 59.1201 0.964355 62.2485 0.964355C65.1948 0.964355 66.7993 1.97852 68.3232 3.14893C66.7183 4.39697 65.1133 5.52832 61.9844 5.52832ZM75.8804 5.52832C72.7515 5.52832 71.1465 4.39697 69.542 3.14893C71.0659 1.97852 72.6704 0.964355 75.6167 0.964355C78.7446 0.964355 80.3501 2.0957 81.9551 3.34375C80.4312 4.51416 78.8262 5.52832 75.8804 5.52832Z" fill="#D8D8D8"/>
</svg>
