<svg width="235" height="18" viewBox="0 0 235 18" fill="none" xmlns="http://www.w3.org/2000/svg">
<path d="M233.279 8.05981C228.516 4.31372 223.467 0.513916 213.658 0.513916C204.363 0.513916 199.373 3.92896 194.783 7.45337C190.194 3.92896 185.202 0.513916 175.909 0.513916C166.097 0.513916 161.048 4.31372 156.288 8.05981C151.469 4.31372 146.476 0.513916 136.667 0.513916C127.201 0.513916 122.152 4.03833 117.564 7.6731C112.399 3.65259 107.179 0.513916 97.7134 0.513916C88.4187 0.513916 83.4285 3.92896 78.8391 7.45337C74.2498 3.92896 69.2576 0.513916 59.9646 0.513916C50.155 0.513916 45.1628 4.31372 40.3438 8.05981C35.5242 4.31372 30.532 0.513916 20.7224 0.513916C11.4297 0.513916 6.4375 3.92896 1.84814 7.45337L0.128906 8.83032L1.84814 10.1526C6.61035 13.8977 11.6577 17.6985 21.469 17.6985C30.762 17.6985 35.7542 14.2834 40.3438 10.7034C44.9329 14.2834 49.9253 17.6985 59.218 17.6985C69.0276 17.6985 74.0767 13.8977 78.8391 10.1526C83.6584 13.8977 88.6487 17.6985 98.4602 17.6985C107.924 17.6985 112.973 14.1184 117.564 10.4827C122.726 14.5032 127.946 17.6985 137.414 17.6985C146.706 17.6985 151.698 14.2834 156.288 10.7034C160.877 14.2834 165.869 17.6985 175.162 17.6985C184.974 17.6985 190.021 13.8977 194.783 10.1526C199.601 13.8977 204.593 17.6985 214.402 17.6985C223.697 17.6985 228.688 14.2834 233.279 10.7034L235 9.3811L233.279 8.05981ZM21.469 15.55C12.634 15.55 8.10156 12.3557 3.56885 8.83032C7.87158 5.52563 12.4043 2.60669 20.7224 2.60669C29.5576 2.60669 34.0898 5.85571 38.6226 9.3811C34.3198 12.6858 29.7876 15.55 21.469 15.55ZM59.218 15.55C50.8997 15.55 46.3672 12.6858 42.0647 9.3811C46.5972 5.85571 51.1296 2.60669 59.9646 2.60669C68.283 2.60669 72.8154 5.52563 77.1182 8.83032C72.5854 12.3557 68.053 15.55 59.218 15.55ZM98.4602 15.55C89.6821 15.55 85.0925 12.3557 80.5603 8.83032C84.8625 5.52563 89.3953 2.60669 97.7134 2.60669C106.376 2.60669 111.138 5.3606 116.014 9.10571C111.598 12.5208 107.065 15.55 98.4602 15.55ZM137.414 15.55C128.751 15.55 123.989 12.7961 119.113 9.10571C123.529 5.69067 128.062 2.66138 136.667 2.66138C145.445 2.66138 150.034 5.85571 154.567 9.3811C150.264 12.6858 145.732 15.55 137.414 15.55ZM175.162 15.55C166.844 15.55 162.312 12.6858 158.009 9.3811C162.541 5.85571 167.074 2.66138 175.909 2.66138C184.227 2.66138 188.76 5.52563 193.062 8.83032C188.53 12.3557 183.997 15.55 175.162 15.55ZM214.402 15.55C205.567 15.55 201.035 12.3557 196.504 8.83032C200.807 5.52563 205.337 2.66138 213.658 2.66138C222.491 2.66138 227.023 5.85571 231.556 9.3811C227.253 12.6858 222.721 15.55 214.402 15.55Z" fill="#D8D8D8"/>
</svg>
