<svg width="84" height="7" viewBox="0 0 84 7" fill="none" xmlns="http://www.w3.org/2000/svg">
<path d="M82.8691 2.87598C81.1831 1.54907 79.395 0.203857 75.9209 0.203857C72.6294 0.203857 70.8623 1.41309 69.2368 2.66113C67.6113 1.41309 65.8438 0.203857 62.5527 0.203857C59.0786 0.203857 57.29 1.54907 55.6045 2.87598C53.8979 1.54907 52.1299 0.203857 48.6562 0.203857C45.3042 0.203857 43.5161 1.4519 41.8916 2.73901C40.0625 1.31519 38.2134 0.203857 34.8613 0.203857C31.5703 0.203857 29.8032 1.41309 28.1772 2.66113C26.5527 1.41309 24.7847 0.203857 21.4937 0.203857C18.02 0.203857 16.252 1.54907 14.5454 2.87598C12.8384 1.54907 11.0708 0.203857 7.59717 0.203857C4.30615 0.203857 2.53809 1.41309 0.913086 2.66113L0.304199 3.14893L0.913086 3.61719C2.59912 4.9436 4.38672 6.28906 7.86133 6.28906C11.1523 6.28906 12.9199 5.07983 14.5454 3.81226C16.1704 5.07983 17.9385 6.28906 21.229 6.28906C24.7031 6.28906 26.4912 4.9436 28.1772 3.61719C29.8843 4.9436 31.6514 6.28906 35.126 6.28906C38.4775 6.28906 40.2656 5.02148 41.8916 3.73389C43.7192 5.15771 45.5679 6.28906 48.9204 6.28906C52.2114 6.28906 53.979 5.07983 55.6045 3.81226C57.23 5.07983 58.998 6.28906 62.2886 6.28906C65.7632 6.28906 67.5503 4.9436 69.2368 3.61719C70.9429 4.9436 72.7109 6.28906 76.1846 6.28906C79.4766 6.28906 81.2432 5.07983 82.8691 3.81226L83.4785 3.34375L82.8691 2.87598ZM7.86133 5.52832C4.73242 5.52832 3.12744 4.39697 1.52197 3.14893C3.0459 1.97852 4.65137 0.94458 7.59717 0.94458C10.7256 0.94458 12.3306 2.0957 13.9355 3.34375C12.4116 4.51416 10.8071 5.52832 7.86133 5.52832ZM21.229 5.52832C18.2832 5.52832 16.6787 4.51416 15.1548 3.34375C16.7598 2.0957 18.3647 0.94458 21.4937 0.94458C24.4395 0.94458 26.0444 1.97852 27.5679 3.14893C25.9629 4.39697 24.3579 5.52832 21.229 5.52832ZM35.126 5.52832C32.0176 5.52832 30.3921 4.39697 28.7876 3.14893C30.3105 1.97852 31.916 0.94458 34.8613 0.94458C37.9292 0.94458 39.6157 1.92017 41.3423 3.24658C39.7783 4.45581 38.1733 5.52832 35.126 5.52832ZM48.9204 5.52832C45.853 5.52832 44.1665 4.55322 42.4399 3.24658C44.0034 2.03687 45.6089 0.964355 48.6562 0.964355C51.7646 0.964355 53.3901 2.0957 54.9951 3.34375C53.4717 4.51416 51.8662 5.52832 48.9204 5.52832ZM62.2886 5.52832C59.3428 5.52832 57.7378 4.51416 56.2139 3.34375C57.8188 2.0957 59.4243 0.964355 62.5527 0.964355C65.499 0.964355 67.1035 1.97852 68.6274 3.14893C67.0225 4.39697 65.4175 5.52832 62.2886 5.52832ZM76.1846 5.52832C73.0557 5.52832 71.4507 4.39697 69.8462 3.14893C71.3701 1.97852 72.9746 0.964355 75.9209 0.964355C79.0488 0.964355 80.6543 2.0957 82.2593 3.34375C80.7354 4.51416 79.1304 5.52832 76.1846 5.52832Z" fill="#D8D8D8"/>
</svg>
