<svg width="235" height="18" viewBox="0 0 235 18" fill="none" xmlns="http://www.w3.org/2000/svg">
<path d="M233.15 8.05981C228.387 4.31372 223.338 0.513916 213.529 0.513916C204.234 0.513916 199.244 3.92896 194.654 7.45337C190.065 3.92896 185.073 0.513916 175.78 0.513916C165.969 0.513916 160.919 4.31372 156.159 8.05981C151.34 4.31372 146.347 0.513916 136.538 0.513916C127.072 0.513916 122.023 4.03833 117.436 7.6731C112.271 3.65259 107.05 0.513916 97.5845 0.513916C88.2898 0.513916 83.2996 3.92896 78.7102 7.45337C74.1208 3.92896 69.1287 0.513916 59.8357 0.513916C50.0261 0.513916 45.0339 4.31372 40.2148 8.05981C35.3953 4.31372 30.4031 0.513916 20.5935 0.513916C11.3008 0.513916 6.30859 3.92896 1.71924 7.45337L0 8.83032L1.71924 10.1526C6.48145 13.8977 11.5288 17.6985 21.3401 17.6985C30.6331 17.6985 35.6252 14.2834 40.2148 10.7034C44.804 14.2834 49.7964 17.6985 59.0891 17.6985C68.8987 17.6985 73.9478 13.8977 78.7102 10.1526C83.5295 13.8977 88.5198 17.6985 98.3313 17.6985C107.795 17.6985 112.844 14.1184 117.436 10.4827C122.597 14.5032 127.817 17.6985 137.285 17.6985C146.577 17.6985 151.569 14.2834 156.159 10.7034C160.748 14.2834 165.74 17.6985 175.033 17.6985C184.845 17.6985 189.892 13.8977 194.654 10.1526C199.472 13.8977 204.464 17.6985 214.273 17.6985C223.568 17.6985 228.559 14.2834 233.15 10.7034L234.871 9.3811L233.15 8.05981ZM21.3401 15.55C12.5051 15.55 7.97266 12.3557 3.43994 8.83032C7.74268 5.52563 12.2754 2.60669 20.5935 2.60669C29.4287 2.60669 33.9609 5.85571 38.4937 9.3811C34.1909 12.6858 29.6587 15.55 21.3401 15.55ZM59.0891 15.55C50.7708 15.55 46.2383 12.6858 41.9358 9.3811C46.4683 5.85571 51.0007 2.60669 59.8357 2.60669C68.1541 2.60669 72.6865 5.52563 76.9893 8.83032C72.4565 12.3557 67.9241 15.55 59.0891 15.55ZM98.3313 15.55C89.5532 15.55 84.9636 12.3557 80.4314 8.83032C84.7336 5.52563 89.2664 2.60669 97.5845 2.60669C106.247 2.60669 111.009 5.3606 115.885 9.10571C111.469 12.5208 106.937 15.55 98.3313 15.55ZM137.285 15.55C128.622 15.55 123.86 12.7961 118.984 9.10571C123.4 5.69067 127.933 2.66138 136.538 2.66138C145.316 2.66138 149.906 5.85571 154.438 9.3811C150.135 12.6858 145.603 15.55 137.285 15.55ZM175.033 15.55C166.715 15.55 162.183 12.6858 157.88 9.3811C162.412 5.85571 166.945 2.66138 175.78 2.66138C184.098 2.66138 188.631 5.52563 192.933 8.83032C188.401 12.3557 183.868 15.55 175.033 15.55ZM214.273 15.55C205.438 15.55 200.906 12.3557 196.375 8.83032C200.678 5.52563 205.208 2.66138 213.529 2.66138C222.362 2.66138 226.895 5.85571 231.427 9.3811C227.124 12.6858 222.592 15.55 214.273 15.55Z" fill="#D8D8D8"/>
</svg>
