
<svg width="18" height="17" viewBox="0 0 18 17" fill="none" xmlns="http://www.w3.org/2000/svg">
<path d="M17.2134 16.234V16.2333H17.2175V10.2795C17.2175 7.36684 16.5904 5.12318 13.1854 5.12318C11.5484 5.12318 10.4499 6.02145 10.0015 6.87306H9.95413V5.39511H6.72559V16.2333H10.0874V10.8666C10.0874 9.45361 10.3552 8.08723 12.1051 8.08723C13.8293 8.08723 13.855 9.69981 13.855 10.9573V16.234H17.2134Z" fill="#4B4B4D"/>
<path d="M1.25122 5.39577H4.61708V16.234H1.25122V5.39577Z" fill="#4B4B4D"/>
<path d="M2.93284 0C1.85664 0 0.983398 0.873242 0.983398 1.94944C0.983398 3.02561 1.85664 3.91711 2.93284 3.91711C4.00901 3.91711 4.88225 3.02561 4.88225 1.94944C4.88158 0.873242 4.00834 0 2.93284 0Z" fill="#4B4B4D"/>
</svg>
