<svg width="36" height="36" viewBox="0 0 36 36" fill="none" xmlns="http://www.w3.org/2000/svg">
<path d="M8.41912 35.5545C8.27581 35.298 8.07708 35.0573 7.99773 34.7824C7.58367 33.3433 7.55388 31.8572 7.51897 30.3745C7.43011 26.5651 8.05999 22.8796 9.4533 19.3301C10.2514 17.2969 11.2707 15.3992 12.8903 13.884C14.1528 12.703 15.6298 11.8766 17.2441 11.283C19.2463 10.546 21.3364 10.2148 23.4426 9.96204C25.9023 9.66706 28.3779 9.48859 30.7975 8.91932C32.1418 8.60297 33.4489 8.17749 34.6816 7.5459C34.8158 7.4773 34.9479 7.40155 35.0888 7.35193C35.4289 7.2323 35.7585 7.46412 35.7653 7.82398C35.7668 7.92695 35.7538 8.03351 35.7275 8.13318C35.133 10.3931 34.5768 12.664 33.9291 14.9085C32.9736 18.2191 31.3395 21.1413 28.7585 23.4808C26.5861 25.4506 24.0378 26.6292 21.1437 27.0678C18.9697 27.3973 16.7895 27.6903 14.6213 28.0542C13.8625 28.1816 13.1313 28.4717 12.3888 28.6903C12.2446 28.7327 12.1064 28.7944 11.9623 28.837C11.3996 29.0032 11.0488 28.7717 11.0031 28.1864C10.9487 27.4843 11.1608 26.8293 11.4433 26.2055C12.6271 23.59 14.4999 21.6184 17.0573 20.311C17.9118 19.874 18.7885 19.4797 19.655 19.066C19.7282 19.0311 19.818 19.0122 19.87 18.9571C19.9301 18.8922 19.9567 18.7961 19.9987 18.7136C19.9094 18.6847 19.8097 18.6147 19.7326 18.634C19.3847 18.7205 19.0424 18.8284 18.7001 18.9357C17.0617 19.4487 15.4604 20.0465 14.0087 20.9881C12.0788 22.24 10.633 23.89 9.78216 26.0477C8.96087 28.1313 8.48943 30.2776 8.62713 32.5239C8.67473 33.2932 8.83611 34.0573 8.97771 34.818C9.03362 35.1194 9.01751 35.3602 8.76678 35.5545H8.41912Z" fill="#739B12"/>
<path d="M23.2772 9.0527C22.6542 9.14444 22.0448 9.20285 21.4498 9.32797C20.172 9.59665 18.9027 9.90329 17.6273 10.1831C17.484 10.2145 17.2841 10.2309 17.1786 10.1571C15.8524 9.22824 14.3346 8.84219 12.7746 8.56839C12.4149 8.50528 12.058 8.42483 11.6928 8.3851C13.2033 9.12381 14.7135 9.86252 16.2548 10.6162C15.4201 11.0818 14.6554 11.4665 13.934 11.9199C12.6244 12.7428 11.5341 13.8083 10.6561 15.0837C10.5072 15.3003 10.3698 15.3498 10.1132 15.2788C8.52553 14.84 7.21815 13.9461 6.08412 12.7877C3.8976 10.5533 2.56239 7.85556 1.81215 4.84311C1.46205 3.4404 1.07704 2.04672 0.731825 0.642973C0.686659 0.459013 0.724745 0.177213 0.842665 0.0558145C0.931288 -0.0350668 1.24232 -0.00241303 1.39906 0.0801065C3.65956 1.26822 6.09437 1.71536 8.61342 1.90774C10.9201 2.08395 13.2343 2.31112 15.4232 3.14462C18.341 4.2557 20.8954 5.89804 22.8473 8.38461C22.9752 8.54806 23.0853 8.72635 23.2016 8.89926C23.2265 8.93637 23.2416 8.98007 23.2772 9.0527Z" fill="#739B12"/>
</svg>
