<svg width="365" height="151" viewBox="0 0 365 151" fill="none" xmlns="http://www.w3.org/2000/svg">
<g opacity="0.1">
<path d="M153.104 144.51L57.5964 49.0022C54.0857 45.4914 54.0857 39.7997 57.5964 36.2889L91.2511 2.63308C94.762 -0.877693 100.454 -0.877693 103.964 2.63308L199.472 98.141C202.983 101.652 202.983 107.344 199.472 110.854L165.818 144.51C162.307 148.021 156.615 148.021 153.104 144.51Z" fill="#91B40D"/>
<path d="M44.929 144.207L2.79956 102.076C-0.711182 98.5652 -0.711182 92.8735 2.79956 89.3628L36.4554 55.7069C39.9674 52.1973 45.658 52.1973 49.1699 55.7069L91.2969 97.8374C94.8076 101.348 94.8076 107.04 91.2969 110.551L57.6422 144.207C54.1315 147.719 48.4397 147.719 44.929 144.207Z" fill="#FFBF00"/>
<path d="M365 141.619C365 146.585 360.975 150.609 356.01 150.609H327.376C288.493 150.609 251.934 135.467 224.437 107.97L165.468 49.002C161.957 45.4913 161.957 39.7996 165.468 36.2887L199.123 2.63415C202.633 -0.877846 208.325 -0.877846 211.836 2.63293L270.805 61.6005C285.917 76.7135 306.007 85.0347 327.376 85.0347H356.01C360.975 85.0347 365 89.0605 365 94.0256V141.619Z" fill="#1A5221"/>
</g>
</svg>
