<svg width="320" height="151" viewBox="0 0 320 151" fill="none" xmlns="http://www.w3.org/2000/svg">
<g opacity="0.1">
<path d="M108.104 144.848L12.5964 49.3396C9.08569 45.8288 9.08569 40.1371 12.5964 36.6263L46.2511 2.97048C49.762 -0.540291 55.4536 -0.540291 58.9644 2.97048L154.472 98.4784C157.983 101.989 157.983 107.681 154.472 111.192L120.818 144.848C117.307 148.358 111.615 148.358 108.104 144.848Z" fill="#91B40D"/>
<path d="M-0.0710449 144.544L-42.2004 102.413C-45.7112 98.9026 -45.7112 93.2109 -42.2004 89.7002L-8.54462 56.0443C-5.03259 52.5347 0.657959 52.5347 4.16992 56.0443L46.2969 98.1749C49.8076 101.686 49.8076 107.377 46.2969 110.888L12.6422 144.544C9.13147 148.056 3.4397 148.056 -0.0710449 144.544Z" fill="#FFBF00"/>
<path d="M320 141.957C320 146.922 315.975 150.947 311.01 150.947H282.376C243.493 150.947 206.934 135.804 179.437 108.307L120.468 49.3394C116.957 45.8287 116.957 40.137 120.468 36.6262L154.123 2.97155C157.633 -0.540443 163.325 -0.540443 166.836 2.97033L225.805 61.9379C240.917 77.0509 261.007 85.3721 282.376 85.3721H311.01C315.975 85.3721 320 89.3979 320 94.363V141.957Z" fill="#1A5221"/>
</g>
</svg>
