<svg width="21" height="22" viewBox="0 0 21 22" fill="none" xmlns="http://www.w3.org/2000/svg">
<path d="M20.1804 21.5813C20.0215 21.4709 19.8431 21.3803 19.7067 21.2469C17.9987 19.5753 16.2968 17.8975 14.5932 16.2215C14.5504 16.1794 14.5053 16.1395 14.4532 16.0909C14.3945 16.1309 14.338 16.1658 14.2855 16.2059C13.1562 17.0664 11.8903 17.6276 10.4944 17.8653C8.40826 18.2206 6.42303 17.9093 4.5788 16.8478C2.6601 15.7434 1.32892 14.1448 0.61676 12.0432C0.405457 11.4199 0.276794 10.7774 0.227722 10.1199C0.223816 10.0676 0.204651 10.0164 0.192627 9.96476C0.192627 9.58563 0.192627 9.20655 0.192627 8.82746C0.244934 8.48118 0.286804 8.13299 0.351379 7.78906C0.585999 6.54041 1.07965 5.40277 1.83856 4.38228C3.09137 2.69774 4.72546 1.55956 6.76654 1.06397C9.61652 0.372012 12.2278 0.932957 14.514 2.76966C16.3459 4.24127 17.4084 6.182 17.6473 8.52923C17.8553 10.5737 17.3683 12.4619 16.2067 14.1647C15.9716 14.5095 15.7043 14.8323 15.4163 15.2121C15.4686 15.2472 15.5386 15.28 15.5908 15.3312C17.2999 17.0099 19.0075 18.6902 20.7147 20.3709C21.0138 20.6654 21.0897 20.9815 20.8858 21.2551C20.7835 21.3922 20.6075 21.4743 20.4648 21.5813H20.1804ZM8.94769 2.11225C8.18042 2.10795 7.43146 2.2202 6.70667 2.45419C4.90991 3.03428 3.50244 4.12085 2.54218 5.7539C1.56885 7.40908 1.30499 9.18689 1.74316 11.0519C2.18378 12.9277 3.23907 14.3984 4.84375 15.4526C6.42792 16.4933 8.1767 16.8609 10.0554 16.5884C11.6616 16.3555 13.0531 15.6682 14.1931 14.5231C15.7009 13.0084 16.424 11.1694 16.3273 9.02115C16.2661 7.66072 15.85 6.41254 15.0652 5.30946C13.5735 3.21291 11.5065 2.18063 8.94769 2.11225Z" fill="black"/>
</svg>
