<svg width="272" height="107" viewBox="0 0 272 107" fill="none" xmlns="http://www.w3.org/2000/svg">
<path d="M125.588 51.7869L91.6923 17.8913C90.4462 16.6454 90.4462 14.6254 91.6923 13.3795L103.636 1.43501C104.882 0.18898 106.902 0.18898 108.148 1.43501L142.044 35.3306C143.29 36.5766 143.29 38.5966 142.044 39.8425L130.1 51.7869C128.854 53.0329 126.834 53.0329 125.588 51.7869Z" fill="#91B40D"/>
<path d="M87.1967 51.679L72.245 36.7271C70.999 35.481 70.999 33.4609 72.245 32.215L84.1894 20.2706C85.4358 19.025 87.4554 19.025 88.7018 20.2706L103.653 35.2228C104.899 36.4686 104.899 38.4885 103.653 39.7347L91.7086 51.679C90.4624 52.9254 88.4425 52.9254 87.1967 51.679Z" fill="#FFBF00"/>
<path d="M200.789 50.7609C200.789 52.523 199.361 53.9514 197.599 53.9514H187.437C173.637 53.9514 160.663 48.5777 150.904 38.8189L129.976 17.8913C128.73 16.6453 128.73 14.6254 129.976 13.3793L141.92 1.43538C143.166 0.188919 145.186 0.188919 146.432 1.43501L167.36 22.3623C172.723 27.726 179.853 30.6792 187.437 30.6792H197.599C199.361 30.6792 200.789 32.1079 200.789 33.8702V50.7609Z" fill="#1A5221"/>
<path d="M31.3036 85.0818V105.74H25.9372V91.3508L17.2466 102.938L8.55585 91.3508V105.74H3.18927V85.0818L0.767029 81.1401H6.75116L17.2466 95.0548L27.7419 81.1401H33.7256L31.3036 85.0818Z" fill="#100F0C"/>
<path d="M47.3569 100.802H62.7913V105.741H42.5129V81.1406H61.8893V86.0323H47.3569V92.016C49.4941 90.781 52.2006 90.5913 55.0502 90.5913H58.6597V95.483H55.0502C50.5386 95.483 49.4941 95.7679 47.3569 96.9075V100.802Z" fill="#100F0C"/>
<path d="M72.0536 105.74V81.1401H77.1349V100.801H90.1949V105.74H72.0536Z" fill="#100F0C"/>
<path d="M103.684 80.5703H108.955L122.253 105.74H116.887L114.939 102.036H111.995C105.916 102.036 99.5997 104.411 98.7921 105.455L98.6498 105.74H93.5209L105.298 83.6571L103.684 80.5703ZM112.612 97.5719L107.816 88.4537L101.974 99.709C103.542 98.9015 106.866 97.5719 111.947 97.5719H112.612Z" fill="#100F0C"/>
<path d="M139.636 81.1401H154.88C162.289 81.1401 167.323 85.4146 167.323 93.2504C167.323 100.896 162.384 105.74 154.88 105.74H144.859V86.032H141.82L139.636 81.1401ZM149.989 86.032V100.801H154.88C159.629 100.801 162.336 98.0944 162.336 93.3456C162.336 88.5488 159.629 86.032 154.88 86.032H149.989Z" fill="#100F0C"/>
<path d="M188.506 85.3665C183.757 85.3665 179.102 87.8838 179.102 93.4403C179.102 98.9965 183.852 101.514 188.554 101.514C193.207 101.514 197.909 98.5693 197.909 93.2502C197.909 87.7412 193.16 85.3665 188.506 85.3665Z" fill="#100F0C"/>
<path d="M231.534 98.2848C232.722 100.279 234.431 100.469 235.666 100.469H237.376V105.741H235.238C232.674 105.741 230.347 105.551 228.067 101.847L224.268 95.6726H223.935C220.089 95.6726 219.044 96.053 217.049 97.0975V105.741H212.063V81.1406H227.925C232.436 81.1406 235.666 84.2749 235.666 88.5492C235.666 92.3008 233.576 94.6281 230.014 95.7202L231.534 98.2848ZM227.925 90.781C229.397 90.781 230.679 89.9741 230.679 88.4066C230.679 86.2219 228.78 86.0323 227.07 86.0323H217.049V92.2062C218.949 91.1611 221.371 90.781 223.935 90.781H227.925Z" fill="#100F0C"/>
<path d="M252.764 80.5703H258.035L271.333 105.74H265.967L264.02 102.036H261.075C254.996 102.036 248.68 104.411 247.872 105.455L247.73 105.74H242.601L254.379 83.6571L252.764 80.5703ZM261.693 97.5719L256.896 88.4537L251.055 99.709C252.622 98.9015 255.946 97.5719 261.027 97.5719H261.693Z" fill="#100F0C"/>
</svg>
