<svg width="115" height="45" viewBox="0 0 115 45" fill="none" xmlns="http://www.w3.org/2000/svg">
<path d="M52.9083 21.5576L38.6606 7.31004C38.1368 6.78632 38.1368 5.93723 38.6606 5.41352L43.6811 0.39283C44.2048 -0.130943 45.0539 -0.130943 45.5776 0.39283L59.8252 14.6404C60.349 15.1641 60.349 16.0132 59.8252 16.537L54.8048 21.5576C54.2811 22.0814 53.432 22.0814 52.9083 21.5576Z" fill="#91B40D"/>
<path d="M36.771 21.5123L30.4862 15.2274C29.9624 14.7036 29.9624 13.8546 30.4862 13.3308L35.5069 8.31015C36.0307 7.78659 36.8797 7.78659 37.4036 8.31015L43.688 14.5951C44.2117 15.1188 44.2117 15.9679 43.688 16.4917L38.6675 21.5123C38.1437 22.0362 37.2946 22.0362 36.771 21.5123Z" fill="#FFBF00"/>
<path d="M84.5184 21.1264C84.5184 21.867 83.9179 22.4675 83.1772 22.4675H78.9058C73.1052 22.4675 67.6514 20.2086 63.5494 16.1067L54.7526 7.30999C54.2289 6.78627 54.2289 5.93724 54.7526 5.41347L59.7731 0.392963C60.2969 -0.130962 61.1461 -0.130962 61.6697 0.392811L70.4665 9.18935C72.7209 11.4439 75.7178 12.6852 78.9058 12.6852H83.1772C83.9179 12.6852 84.5184 13.2858 84.5184 14.0265V21.1264Z" fill="#1A5221"/>
<path d="M13.277 35.5529V44.2364H11.0212V38.1879L7.36829 43.0586L3.71521 38.1879V44.2364H1.45947V35.5529L0.441284 33.896H2.95667L7.36829 39.7449L11.7798 33.896H14.295L13.277 35.5529Z" fill="#100F0C"/>
<path d="M20.0248 42.1602H26.5125V44.2364H17.9886V33.896H26.1333V35.9521H20.0248V38.4673C20.9231 37.9482 22.0608 37.8685 23.2585 37.8685H24.7758V39.9246H23.2585C21.3622 39.9246 20.9231 40.0444 20.0248 40.5234V42.1602Z" fill="#100F0C"/>
<path d="M30.4057 44.2364V33.896H32.5416V42.1602H38.0312V44.2364H30.4057Z" fill="#100F0C"/>
<path d="M43.7012 33.6562H45.9169L51.5063 44.2362H49.2506L48.4321 42.679H47.1945C44.6393 42.679 41.9844 43.6772 41.6449 44.1164L41.5851 44.2362H39.4292L44.3798 34.9537L43.7012 33.6562ZM47.4539 40.8027L45.4379 36.97L42.9824 41.701C43.6412 41.3616 45.0386 40.8027 47.1744 40.8027H47.4539Z" fill="#100F0C"/>
<path d="M58.8131 33.8955H65.2209C68.3351 33.8955 70.4512 35.6922 70.4512 38.9859C70.4512 42.1998 68.3749 44.236 65.2209 44.236H61.0087V35.9517H59.7312L58.8131 33.8955ZM63.1649 35.9517V42.1598H65.2209C67.217 42.1598 68.3549 41.022 68.3549 39.0259C68.3549 37.0096 67.217 35.9517 65.2209 35.9517H63.1649Z" fill="#100F0C"/>
<path d="M79.3549 35.6724C77.3588 35.6724 75.4024 36.7305 75.4024 39.0662C75.4024 41.4016 77.3989 42.4597 79.3751 42.4597C81.3312 42.4597 83.3076 41.222 83.3076 38.9863C83.3076 36.6706 81.3113 35.6724 79.3549 35.6724Z" fill="#100F0C"/>
<path d="M97.4413 41.1023C97.9406 41.9407 98.659 42.0206 99.178 42.0206H99.8968V44.2364H98.9985C97.9206 44.2364 96.9423 44.1565 95.9841 42.5995L94.3871 40.0043H94.2474C92.6306 40.0043 92.1913 40.1642 91.353 40.6033V44.2364H89.257V33.896H95.9243C97.8206 33.896 99.178 35.2134 99.178 37.0101C99.178 38.587 98.2997 39.5652 96.8024 40.0244L97.4413 41.1023ZM95.9243 37.9482C96.543 37.9482 97.0821 37.609 97.0821 36.9501C97.0821 36.0319 96.2838 35.9521 95.565 35.9521H91.353V38.5472C92.1514 38.108 93.1694 37.9482 94.2474 37.9482H95.9243Z" fill="#100F0C"/>
<path d="M106.365 33.6562H108.581L114.17 44.2362H111.915L111.096 42.679H109.858C107.303 42.679 104.649 43.6772 104.309 44.1164L104.249 44.2362H102.093L107.044 34.9537L106.365 33.6562ZM110.118 40.8027L108.102 36.97L105.646 41.701C106.305 41.3616 107.703 40.8027 109.838 40.8027H110.118Z" fill="#100F0C"/>
</svg>
