<svg width="84" height="84" viewBox="0 0 84 84" fill="none" xmlns="http://www.w3.org/2000/svg">
<path d="M78.8027 19.32C77.6981 19.2971 76.5928 19.3024 75.4228 19.3083C75.0391 19.3102 74.6483 19.3122 74.2478 19.313C74.3768 19.1761 74.4835 19.0637 74.593 18.9542C75.4543 18.0924 76.3161 17.2314 77.1781 16.37C78.6994 14.8502 80.2205 13.3304 81.7377 11.8067C83.7946 9.74121 83.7933 7.16589 81.7345 5.08569C80.6027 3.94177 79.3825 2.71381 78.1295 1.48309C76.1109 -0.499023 73.5187 -0.494079 71.5253 1.49628C69.8089 3.21002 68.0932 4.92493 66.3774 6.63965C62.3672 10.6479 58.2204 14.7927 54.1289 18.8557C53.8796 19.1033 53.4411 19.2906 53.1086 19.2912C43.3134 19.3135 33.3538 19.3128 23.7221 19.3128L18.3841 19.3126L18.3846 14.5471C18.3852 11.2407 18.3856 7.93433 18.383 4.62769C18.3817 3.2381 17.9346 2.06793 17.0894 1.24329C16.259 0.432678 15.1058 0.0203248 13.7547 0.053589C13.4082 0.0617677 13.0589 0.0654908 12.7085 0.0687257C11.1934 0.0840455 9.62695 0.0996095 8.18341 0.506409C3.78644 1.74579 1.08493 4.73352 0.154266 9.3869C0.142609 9.44568 0.109772 9.5127 0.0751953 9.58374C0.0549011 9.62518 0.03479 9.66644 0.0170593 9.70813L0 9.74854V73.3463L0.00802612 73.4042C0.0661316 73.6135 0.11969 73.8248 0.173279 74.0356C0.28949 74.493 0.409637 74.9659 0.577698 75.4187C2.14331 79.6331 5.15613 82.2186 9.5321 83.103C9.58243 83.1132 9.6438 83.1466 9.70862 83.1819C9.74878 83.2039 9.78897 83.2257 9.82959 83.2448L9.87323 83.2651H79.8366L79.8733 83.2512C81.7364 82.5527 82.7714 81.4951 83.1307 79.9224C83.2052 79.5959 83.243 79.2308 83.243 78.8375C83.248 60.4874 83.2489 42.1375 83.2456 23.7876C83.2452 21.2513 81.3767 19.3725 78.8027 19.32ZM72.1637 5.36243C72.3089 5.22137 72.4551 5.07788 72.6023 4.93317C73.0674 4.47601 73.5483 4.00354 74.0497 3.56195C74.5744 3.09985 75.1402 3.11304 75.6432 3.59912C77.0154 4.92584 78.3764 6.28485 79.6888 7.63898C80.1736 8.13934 80.1844 8.70514 79.7191 9.23248C79.2779 9.73303 78.8029 10.2126 78.3436 10.6766C78.1967 10.8248 78.0511 10.9718 77.9076 11.1182L72.1637 5.36243ZM11.7823 80.0656C7.10669 80.0615 3.59528 76.905 3.24292 72.3898C2.94025 68.5106 5.62967 64.992 9.49863 64.2054C10.4515 64.012 11.4682 64.0015 12.459 64.0015H12.6402C13.0221 64.0013 13.4175 64.0019 13.8048 63.9924C16.1043 63.9348 17.8235 62.5903 18.2914 60.4833C18.3817 60.0774 18.3813 59.6566 18.3809 59.2496V59.1522C18.3843 48.8128 18.3843 38.4736 18.3841 28.1342V22.6229H50.3952C50.2425 22.7795 50.0936 22.934 49.9476 23.0856C49.4054 23.6488 48.8933 24.1805 48.3425 24.6528C46.8408 25.9404 46.0516 27.6663 45.9298 29.9286C45.8725 30.988 45.7591 32.037 45.639 33.1481C45.5913 33.5901 45.5427 34.0395 45.4969 34.4982L23.0291 34.4985C22.9584 34.4985 22.8878 34.4972 22.8171 34.496C22.6143 34.4921 22.4054 34.4888 22.1958 34.5134C21.3217 34.616 20.7093 35.278 20.7065 36.1232C20.7037 36.9833 21.2544 37.6051 22.1092 37.7068C22.5903 37.7642 23.08 37.7619 23.5529 37.7604C23.7249 37.7593 23.8969 37.7592 24.0684 37.7613C24.4391 37.7661 24.8098 37.7669 25.1806 37.768C25.4839 37.7689 25.7874 37.7697 26.0905 37.7727C26.1134 37.7729 26.1536 37.783 26.2086 37.7965L26.2091 74.1311C26.2091 74.2026 26.2076 74.2741 26.2063 74.3456C26.2024 74.5477 26.1983 74.7568 26.2253 74.9664C26.3292 75.7779 26.9985 76.3638 27.8185 76.3638H27.8302C28.66 76.3584 29.3033 75.7721 29.3952 74.9382C29.4239 74.6749 29.423 74.4103 29.4224 74.1542L29.422 74.0264C29.4232 69.1239 29.4232 64.2214 29.423 59.3192V55.7537H44.1054V66.2102C44.0859 66.2111 44.0665 66.2123 44.0468 66.2134C43.8591 66.2243 43.6647 66.2355 43.4756 66.2357C42.5845 66.2366 41.6934 66.2361 40.802 66.2363C38.943 66.2361 37.0847 66.2355 35.2259 66.2448H35.1168C34.7241 66.2433 34.2786 66.243 33.9999 66.4807C33.6165 66.8073 33.1758 67.3645 33.1952 67.8588C33.2153 68.371 33.6476 68.9234 34.0455 69.2702C34.3143 69.5039 34.752 69.4991 35.1378 69.4962L35.2709 69.4954C44.1588 69.5034 52.9286 69.5026 61.8788 69.5011C64.1171 69.5006 65.3009 68.3345 65.302 66.1288C65.3055 59.4983 65.3046 52.8682 65.3001 46.2377L65.3003 46.1633C65.3007 45.8481 65.3009 45.5219 65.2029 45.2145C64.9732 44.4958 64.122 44.0287 63.3813 44.217C62.5638 44.424 62.1138 44.9933 62.1138 45.8196L62.1134 52.3766H29.4686V37.7626H30.2427C31.9623 37.7626 33.6819 37.7669 35.4014 37.7713C39.6758 37.7825 44.0952 37.7933 48.442 37.7338C50.4464 37.7064 52.4748 37.4455 54.4364 37.1929L55.0527 37.1141C56.1584 36.973 57.166 36.4117 58.2237 35.3478C63.1769 30.3654 66.97 26.5764 70.5223 23.0621C70.7776 22.8096 71.2399 22.6205 71.6219 22.6125C73.5267 22.5721 75.4654 22.5793 77.3408 22.5871L78.5713 22.5912C79.6804 22.5944 80.0546 22.9742 80.0548 24.0967C80.0583 42.2354 80.0583 60.374 80.055 78.5128C80.0548 79.6495 79.6344 80.072 78.5037 80.0723L65.7023 80.0742C48.0296 80.0777 29.7555 80.0815 11.7823 80.0656ZM15.1659 4.36841C15.1898 4.55511 15.1873 4.74762 15.1844 4.95129C15.1836 5.01697 15.1825 5.08264 15.1825 5.14807C15.1831 23.0435 15.1831 40.9387 15.1831 58.8342L15.1844 59.0046C15.1857 59.1329 15.1875 59.261 15.1808 59.3887C15.133 60.3062 14.7498 60.6779 13.8141 60.7136C13.3829 60.7301 12.9504 60.7381 12.5179 60.746C11.4256 60.7661 10.2964 60.7869 9.19983 60.9502C7.00235 61.2777 5.0321 62.3215 3.19128 64.1361L3.19064 49.8718C3.18976 37.1326 3.18869 24.3935 3.19473 11.6542C3.19647 7.4884 5.68433 4.27875 9.53299 3.47693C10.471 3.28156 11.4632 3.24744 12.4471 3.24744C12.7121 3.24744 12.9768 3.25 13.2395 3.25244C13.5067 3.25482 13.7737 3.25739 14.0392 3.25739C14.0507 3.25739 14.06 3.25824 14.074 3.25739C14.9301 3.25739 15.1229 4.03424 15.1659 4.36841ZM47.4064 66.1737V55.7693H62.0624V66.1737H47.4064ZM52.9403 34.1423C51.7785 34.2704 50.5771 34.4028 49.3976 34.4681C49.2018 34.4771 49.0595 34.433 48.9603 34.3283C48.8138 34.1738 48.7529 33.8723 48.7931 33.5013C48.9098 32.4285 49.034 31.3568 49.1595 30.2737L49.2639 29.3694L53.9382 34.0336C53.6051 34.0688 53.2726 34.1056 52.9403 34.1423ZM56.867 31.9688L51.3505 26.4147L65.8393 11.9288L71.4043 17.4586L56.867 31.9688ZM68.3436 9.33203L69.7703 7.88806L75.4157 13.5015L73.8764 14.9818L68.3436 9.33203Z" fill="#91B40D"/>
</svg>
