<svg width="88" height="84" viewBox="0 0 88 84" fill="none" xmlns="http://www.w3.org/2000/svg">
<path d="M87.0906 80.2288C86.4929 81.8037 85.5774 83.0684 83.834 83.4895C83.4544 83.5813 83.0535 83.6231 82.6624 83.6231C56.5913 83.6292 30.5204 83.6292 4.44936 83.6275C2.06606 83.6272 0.118795 81.8338 0.0352986 79.5823C-0.05955 77.0242 1.65127 75.0966 4.17385 74.9236C4.56582 74.8969 4.95937 74.8871 5.48037 74.8637C5.48037 73.6045 5.4789 72.3715 5.48159 71.1388C5.48232 70.8557 5.44655 70.5591 5.51699 70.2926C5.68679 69.6479 6.12966 69.2522 6.80678 69.2808C7.51015 69.3106 7.99941 69.6933 8.02993 70.4378C8.07119 71.4563 8.05141 72.4774 8.05654 73.4973C8.05861 73.9191 8.0569 74.341 8.0569 74.8456C8.38808 74.8662 8.66115 74.8975 8.93422 74.8977C11.6829 74.9013 14.4318 74.918 17.1802 74.8822C17.6308 74.8764 18.1323 74.7244 18.5192 74.4894C23.9119 71.2145 29.745 69.1913 35.982 68.329C38.0217 68.0471 40.0775 67.8806 42.2084 67.6524C42.0855 65.8079 41.4229 64.147 40.3375 62.6166C39.7208 61.7472 39.0357 61.4951 37.9138 61.5825C31.7147 62.0652 25.8732 61.0253 20.9455 56.9015C18.0957 54.5169 16.026 51.5977 15.4341 47.8168C15.1742 46.1565 15.7117 45.2665 17.3371 44.8515C20.9059 43.9403 24.4258 44.3738 27.8715 45.4679C34.5784 47.5978 38.7481 52.206 40.8192 58.8555C41.0282 59.5271 41.5799 60.0917 41.9723 60.7062L42.2647 60.6143C42.2647 60.0948 42.2647 59.5751 42.2647 59.0557C42.2647 57.1287 42.2822 55.2012 42.2473 53.2749C42.2416 52.9525 42.0995 52.5293 41.8678 52.3297C36.1576 47.4141 34.6895 41.2636 36.5366 34.1439C37.5596 30.2013 39.4581 26.6815 41.8358 23.4069C42.804 22.0734 44.3505 22.067 45.3147 23.3968C48.2052 27.3832 50.3987 31.6999 51.1404 36.6193C52.072 42.7996 50.2291 48.0208 45.4708 52.1405C45.0729 52.4851 44.8751 52.8051 44.8821 53.3487C44.9127 55.8067 44.8954 58.2654 44.8954 60.7239L45.1629 60.849C45.5626 60.1547 46.1002 59.5048 46.3411 58.7591C48.9262 50.7498 54.3136 46.024 62.6447 44.6806C64.844 44.3261 67.0368 44.2782 69.231 44.6986C71.3539 45.1054 72.0395 46.0531 71.6481 48.1675C70.934 52.0241 68.6734 54.9035 65.6863 57.2575C61.9268 60.2201 57.5399 61.4701 52.8258 61.6654C51.4444 61.7228 50.0532 61.6112 48.6698 61.5252C48.1117 61.4905 47.7149 61.6164 47.356 62.0661C46.0365 63.7198 45.2357 65.5758 44.9866 67.6952C46.6643 67.8488 48.2962 67.9617 49.9187 68.1531C56.4878 68.9284 62.6431 70.94 68.3478 74.3208C68.9181 74.6587 69.6526 74.8582 70.3167 74.8747C72.8941 74.9373 75.4737 74.9 78.0524 74.9H79.0187C79.0377 74.5225 79.0634 74.2476 79.0634 73.973C79.0655 60.7392 79.0612 47.5053 79.0784 34.2714C79.0791 33.664 78.9009 33.3052 78.3828 32.9724C67.0739 25.7025 55.7732 18.4196 44.4856 11.1162C43.822 10.6868 43.3494 10.6542 42.6633 11.0983C31.4036 18.3889 20.1286 25.6554 8.84169 32.904C8.23867 33.291 8.03884 33.6989 8.04055 34.4031C8.0646 44.0949 8.0569 53.7863 8.0569 63.4779C8.0569 63.7047 8.05886 63.9314 8.05617 64.1581C8.04299 65.2919 7.58645 65.8734 6.73379 65.8445C5.93142 65.8173 5.48159 65.2194 5.48134 64.1579C5.47976 55.713 5.48037 47.2683 5.48037 38.8236C5.48037 37.4684 5.48037 36.1131 5.48037 34.7012C5.23354 34.6881 5.04543 34.6688 4.85756 34.6697C2.5895 34.6804 0.844381 33.414 0.219747 31.3008C-0.410014 29.1708 0.325582 27.2136 2.28481 25.9462C8.77309 21.7501 15.2704 17.5679 21.7644 13.3808C28.2825 9.17788 34.812 4.99282 41.3107 0.760279C42.8519 -0.243505 44.2526 -0.256445 45.7952 0.7438C54.2008 6.19314 62.6286 11.6083 71.0478 17.0362C72.2138 17.7879 72.5116 18.4405 72.0443 19.1935C71.5624 19.9699 70.8146 19.9707 69.6197 19.2003C61.2453 13.8024 52.866 8.41165 44.5043 2.99368C43.851 2.57022 43.3764 2.50064 42.6854 2.9479C29.7842 11.2952 16.8667 19.6176 3.94851 27.9389C3.17263 28.4389 2.51748 29.0155 2.59963 30.024C2.66836 30.862 3.10354 31.5199 3.87197 31.9088C4.67751 32.3167 5.39724 32.0622 6.10195 31.6072C11.3325 28.2294 16.568 24.8587 21.8015 21.4855C28.2964 17.2992 34.803 13.1311 41.277 8.91299C42.8471 7.88967 44.2676 7.88784 45.8371 8.90383C57.4068 16.3928 68.9958 23.852 80.5792 31.3196C80.8644 31.5034 81.1463 31.6964 81.4477 31.8496C82.4872 32.3777 83.5633 32.0681 84.1641 31.0845C84.7774 30.081 84.6164 28.9696 83.6723 28.2923C82.7075 27.5998 81.6883 26.9831 80.6895 26.3383C78.9771 25.2329 77.2593 24.136 75.5493 23.0274C74.6603 22.451 74.4298 21.7376 74.8877 21.0498C75.3346 20.3778 76.0846 20.3035 76.9697 20.8703C79.5675 22.5332 82.1489 24.2219 84.7597 25.8642C85.9197 26.5938 86.6236 27.6338 87.0906 28.8778V30.9182C86.9811 31.1703 86.8664 31.4199 86.7632 31.6747C86.1624 33.1582 85.1281 34.1828 83.5557 34.5591C82.9663 34.7002 82.3357 34.6691 81.7089 34.7177V74.7769C82.6154 74.9186 83.4796 74.9459 84.2709 75.2002C85.7927 75.6894 86.581 76.9198 87.0906 78.3585V80.2288ZM43.5989 77.4955C30.7916 77.4955 17.9845 77.4953 5.17727 77.4956C4.86562 77.4956 4.55239 77.4807 4.2427 77.5076C3.39492 77.581 2.71914 78.2445 2.60634 79.0907C2.50417 79.8548 3.00722 80.6787 3.80752 80.9281C4.20205 81.051 4.63991 81.0741 5.05837 81.0744C30.7294 81.0807 56.4003 81.0801 82.0713 81.0799C83.6466 81.0799 84.5493 80.4072 84.5291 79.2515C84.5095 78.1261 83.6409 77.4956 82.1051 77.4956C69.2698 77.4953 56.4341 77.4955 43.5989 77.4955ZM63.5292 74.8698C57.2258 71.7248 50.5438 70.3374 43.551 70.3466C36.6774 70.3556 25.3479 72.9214 23.6205 74.8698H63.5292ZM50.8377 59.0689C59.7324 59.4964 67.1979 54.7847 68.7155 48.6546C62.4269 51.5481 56.4898 54.8507 50.8377 59.0689ZM44.9756 27.6383V48.9309L45.2416 49.0464C46.0385 47.7566 46.9557 46.5248 47.6066 45.1652C48.8935 42.4774 49.032 39.6175 48.5156 36.7067C47.9483 33.5077 46.7077 30.5795 44.9756 27.6383ZM42.2116 27.8766C40.8522 29.8747 39.8611 32.0148 39.1983 34.2928C38.189 37.7602 37.9595 41.2375 39.3168 44.6797C39.9494 46.2835 40.8545 47.7165 42.2116 49.0467V27.8766ZM18.4027 48.7475C19.3843 54.5136 29.714 60.5196 35.9181 58.9922C30.3478 55.1241 24.5109 51.8109 18.4027 48.7475ZM37.0061 56.3452C34.5526 50.7521 25.8666 45.6818 21.2964 47.1095C26.4925 50.164 31.7875 53.277 37.0061 56.3452ZM50.2997 56.1105C52.7692 54.5465 55.2488 52.8832 57.8194 51.3749C60.3758 49.8748 63.0235 48.5309 65.6966 47.0833C59.8379 46.8411 52.791 50.3192 50.2997 56.1105Z" fill="#91B40D"/>
</svg>
