<svg width="124" height="84" viewBox="0 0 124 84" fill="none" xmlns="http://www.w3.org/2000/svg">
<path d="M0.000213623 70.2998C0.887115 68.4555 2.34708 67.8203 4.379 67.8657C8.9548 67.9678 13.5341 67.8976 18.1122 67.8976H19.403C19.95 65.2611 20.9087 64.491 24.0282 64.1572C24.0652 63.9949 24.144 63.8098 24.1443 63.6244C24.153 59.8496 24.1675 56.0747 24.1286 52.3005C24.125 51.9544 23.8517 51.4716 23.5578 51.2945C22.6602 50.7537 22.2984 49.9849 22.2936 48.9934C22.2859 47.4675 22.2872 45.9416 22.2881 44.4157C22.2898 41.6942 22.7289 41.1984 25.5559 40.8775C25.5559 38.8677 25.5559 36.8364 25.5559 34.8051C25.5559 34.4033 25.5559 34.0019 25.5559 33.6001C25.5559 30.2673 25.8872 29.8649 29.1911 29.2519V26.5333C28.789 26.5082 28.4034 26.4885 28.0186 26.4599C26.9583 26.3804 26.4416 25.7169 26.3266 24.746C26.2194 23.8398 27.0072 22.8978 27.9836 22.8685C30.0696 22.8064 32.1602 22.8054 34.2462 22.8701C35.2451 22.9011 35.963 23.7918 35.8828 24.7489C35.7982 25.7549 35.2419 26.363 34.2041 26.4589C33.8509 26.4914 33.4955 26.4988 33.0628 26.5217V29.3334C33.3535 29.3585 33.6236 29.3804 33.8934 29.4055C35.7348 29.5764 36.6255 30.527 36.6339 32.3787C36.6461 35.1856 36.6371 37.9921 36.6371 40.8681C37.091 40.9222 37.4776 40.9531 37.8585 41.0169C39.1252 41.2284 39.9049 42.0048 39.9423 43.2806C39.9993 45.2466 40.0675 47.2245 39.9017 49.1782C39.8412 49.8942 39.1423 50.5641 38.7061 51.2366C38.5304 51.5076 38.0912 51.7275 38.0887 51.9738C38.0494 56.019 38.0609 60.0649 38.0609 64.2061C40.655 64.1047 42.3393 65.1075 42.7984 67.8976C43.1892 67.8976 43.6125 67.8976 44.0362 67.8976C47.3694 67.8976 50.7022 67.8941 54.0353 67.8995C55.4334 67.9021 56.2795 68.5611 56.3278 69.6591C56.3777 70.7875 55.4981 71.5276 54.0353 71.5324C50.3436 71.544 46.6515 71.5363 42.8524 71.5363V76.9185H80.5498V71.5366C80.0605 71.5366 79.6319 71.5366 79.2035 71.5366C73.7022 71.5366 68.2005 71.5372 62.6989 71.5353C62.2978 71.5353 61.8932 71.5466 61.4959 71.5018C60.4445 71.384 59.9043 70.7019 59.9008 69.7187C59.8976 68.7262 60.4818 68.0644 61.4984 67.9182C61.971 67.8503 62.4604 67.8982 62.9423 67.8979C68.3634 67.8973 73.7846 67.8976 79.2057 67.8976H80.5611C80.9908 65.2002 82.6322 64.0787 85.32 64.2184C85.32 62.3663 85.32 60.6106 85.32 58.8548C85.32 56.6864 85.3499 54.5169 85.291 52.3501C85.2807 51.9773 84.9791 51.4774 84.6604 51.2739C83.7825 50.7131 83.4197 49.9466 83.4158 48.9574C83.4101 47.4714 83.4132 45.9857 83.4135 44.5C83.4138 41.7154 83.8646 41.201 86.7406 40.8736C86.7406 39.2691 86.7406 37.6409 86.7406 36.0123C86.7406 34.8476 86.7354 33.6832 86.7419 32.5184C86.7532 30.443 87.5953 29.5603 89.7036 29.3994C89.8971 29.3845 90.0896 29.3575 90.3217 29.3314C90.3487 29.1019 90.3889 28.9081 90.3916 28.7137C90.3996 28.0331 90.3944 27.3526 90.3944 26.5352C89.9589 26.5088 89.5761 26.4921 89.1946 26.4612C88.1551 26.3765 87.5912 25.7774 87.4945 24.7721C87.4025 23.8143 88.1107 22.9068 89.1064 22.8734C91.1922 22.8038 93.2827 22.8083 95.369 22.8663C96.3542 22.8933 97.0959 23.804 97.065 24.7238C97.0331 25.6696 96.3046 26.3768 95.2609 26.4654C94.9464 26.4921 94.63 26.4979 94.2185 26.5178V29.3227C94.5836 29.3569 94.9335 29.3781 95.2802 29.4245C96.8741 29.6369 97.8006 30.6397 97.8141 32.2564C97.8379 35.1035 97.8205 37.9509 97.8205 40.8704C98.3053 40.9348 98.7312 40.9721 99.1491 41.0497C100.272 41.2589 100.995 41.9327 101.029 43.0762C101.092 45.2012 101.138 47.3355 100.99 49.4522C100.946 50.0793 100.231 50.6619 99.8161 51.2594C99.6297 51.5276 99.254 51.7803 99.2511 52.043C99.2122 55.6166 99.2238 59.1906 99.2228 62.7646C99.2228 63.2004 99.2228 63.6363 99.2228 64.192C101.827 64.1186 103.547 65.1391 103.942 67.8976C105.541 67.8976 107.142 67.8976 108.743 67.8976C112.437 67.8979 116.132 67.887 119.826 67.9024C121.996 67.9114 123.357 69.2757 123.373 71.431C123.386 73.2782 123.381 75.1254 123.374 76.9726C123.365 79.2959 122.039 80.646 119.731 80.6508C114.913 80.6608 110.094 80.6541 105.275 80.6541C104.835 80.6541 104.395 80.6541 103.891 80.6541C103.134 83.2079 101.252 83.8108 98.841 83.7677C94.3448 83.6875 89.8456 83.701 85.349 83.7628C83.0379 83.7944 81.3655 83.0205 80.6431 80.685H42.7424C42.0158 83.0437 40.3 83.8012 37.9502 83.7651C33.4137 83.6952 28.8753 83.7448 24.3375 83.7445C21.493 83.7442 20.7066 83.2597 19.4108 80.6541C17.2501 80.6541 15.0471 80.6602 12.8446 80.6518C11.4471 80.6463 10.6294 79.9761 10.614 78.8526C10.5985 77.7313 11.4078 77.0324 12.804 77.0212C14.9699 77.0035 17.1361 77.0163 19.4073 77.0163V71.6351H3.68686V76.96C4.26926 76.9877 4.82101 76.9899 5.36765 77.0447C6.33694 77.1419 6.90097 77.6911 6.98886 78.6643C7.08316 79.7063 6.54776 80.3772 5.57755 80.6106C3.05203 81.2177 1.33749 80.4686 0.000213623 78.2519V70.2998ZM39.0197 67.9691H23.2101V79.9098H39.0197V67.9691ZM100.205 67.9646H84.3967V79.9146H100.205V67.9646ZM103.957 71.5978V76.9481H119.696V71.5978H103.957ZM34.2929 64.1778V51.5733H27.9678V64.1778H34.2929ZM89.0572 64.1491H95.4019V51.562H89.0572V64.1491ZM36.1433 47.7881V44.7717H26.0807V47.7881H36.1433ZM87.1878 47.7962H97.3055V44.8059H87.1878V47.7962ZM32.9434 40.89V33.2209H29.2796V40.89H32.9434ZM90.4298 33.1913V40.89H94.0595V33.1913H90.4298Z" fill="#91B40D"/>
<path d="M32.9814 2.50788C32.9814 4.0325 32.4119 4.8695 31.2996 4.98088C30.1021 5.10096 29.3121 4.23467 29.2622 2.74739C29.2033 0.992268 29.9328 -0.0526841 31.1783 0.00204917C32.3169 0.0522658 32.9811 0.975209 32.9814 2.50788Z" fill="#91B40D"/>
<path d="M94.1177 2.54027C94.1123 4.00213 93.5718 4.94278 92.5236 4.93119C91.9326 4.92475 90.9388 4.56452 90.838 4.17821C90.5728 3.16223 90.5361 2.01201 90.7456 0.984105C90.8309 0.56561 91.7693 0.102689 92.354 0.0518233C93.4758 -0.0460313 94.1235 0.984753 94.1177 2.54027Z" fill="#91B40D"/>
<path d="M32.9814 10.1892C32.9743 12.0708 31.7252 13.139 30.3339 12.4465C29.2944 11.9292 29.2519 10.9702 29.259 9.98605C29.2654 9.05634 29.4644 8.2377 30.4109 7.81309C31.8083 7.1863 32.9885 8.27795 32.9814 10.1892Z" fill="#91B40D"/>
<path d="M94.4039 10.3018C93.9793 11.0033 93.6886 11.8628 93.096 12.3663C92.3713 12.9812 91.4986 12.6705 90.8734 11.9645C90.1865 11.1894 90.1684 9.15514 90.8441 8.3558C91.4149 7.68074 92.1428 7.44831 92.9846 7.82657C93.9877 8.27758 94.1326 9.16737 94.1174 10.1286L94.4039 10.3018Z" fill="#91B40D"/>
<path d="M15.758 10.3039C16.8766 10.3429 18.5056 12.032 18.4611 13.1075C18.4209 14.0887 17.5414 14.8993 16.5547 14.8649C15.428 14.8256 13.8258 13.1474 13.8663 12.0494C13.904 11.0408 14.7407 10.2685 15.758 10.3039Z" fill="#91B40D"/>
<path d="M106.737 14.8649C105.751 14.8543 104.902 13.9973 104.913 13.0238C104.925 11.9302 106.599 10.2978 107.702 10.3042C108.714 10.31 109.525 11.1293 109.512 12.1321C109.497 13.2482 107.844 14.8765 106.737 14.8649Z" fill="#91B40D"/>
<path d="M53.7366 6.73558C53.7244 7.8565 52.0813 9.50249 50.989 9.488C50.03 9.47512 49.1657 8.58469 49.1772 7.62118C49.1905 6.52053 50.8654 4.87487 51.9603 4.88678C52.9772 4.89773 53.7479 5.69995 53.7366 6.73558Z" fill="#91B40D"/>
<path d="M74.1992 7.60299C74.2214 8.56264 73.3641 9.46369 72.4055 9.4888C71.3257 9.51713 69.6614 7.8705 69.6402 6.75344C69.6208 5.71396 70.3802 4.90819 71.3982 4.88791C72.4946 4.86633 74.1738 6.49397 74.1992 7.60299Z" fill="#91B40D"/>
<path d="M76.8303 10.3042C77.9776 10.2997 79.5614 11.8884 79.5611 13.0434C79.5608 14.063 78.7592 14.8716 77.7548 14.8652C76.6648 14.8588 74.9821 13.1883 74.9818 12.1124C74.9815 11.1344 75.8259 10.3084 76.8303 10.3042Z" fill="#91B40D"/>
<path d="M21.9771 20.2464C20.8118 20.22 19.255 18.613 19.2827 17.4657C19.3071 16.4635 20.1605 15.633 21.1347 15.6629C22.2257 15.6967 23.8636 17.399 23.8439 18.4791C23.8256 19.4796 22.9912 20.2696 21.9771 20.2464Z" fill="#91B40D"/>
<path d="M102.294 15.6592C103.277 15.6656 104.095 16.5113 104.093 17.5183C104.092 18.6122 102.582 20.177 101.466 20.2414C100.454 20.3 99.5885 19.5403 99.5334 18.5455C99.4719 17.4288 101.172 15.6518 102.294 15.6592Z" fill="#91B40D"/>
<path d="M48.3931 12.1385C48.3737 13.2263 46.682 14.8736 45.5936 14.8649C44.5886 14.8568 43.8038 14.0408 43.815 13.0161C43.8282 11.8594 45.4294 10.2843 46.5723 10.3039C47.577 10.321 48.4108 11.1608 48.3931 12.1385Z" fill="#91B40D"/>
<path d="M33.2386 17.9353C32.8465 18.6223 32.5944 19.4734 32.0291 19.9586C31.1593 20.7051 29.7232 20.1456 29.4235 19.0269C29.2616 18.4224 29.249 17.7528 29.298 17.1228C29.3891 15.9548 30.0947 15.3223 31.1516 15.3387C32.1788 15.3541 32.8668 16.0482 32.9723 17.1865C32.991 17.3851 32.9752 17.5873 32.9752 17.7879L33.2386 17.9353Z" fill="#91B40D"/>
<path d="M94.1174 17.8423C94.1036 19.4294 93.4504 20.2612 92.2303 20.2451C90.9207 20.2274 90.2766 19.1941 90.3983 17.3066C90.4833 15.989 91.2765 15.2367 92.4647 15.3471C93.5985 15.4521 94.1309 16.2565 94.1174 17.8423Z" fill="#91B40D"/>
<path d="M13.0129 7.60477C13.0303 8.63234 12.2532 9.46386 11.2533 9.48672C10.19 9.51119 8.48223 7.84428 8.45355 6.75361C8.42785 5.77852 9.26708 4.90482 10.2489 4.88453C11.3692 4.86103 12.9933 6.4597 13.0129 7.60477Z" fill="#91B40D"/>
<path d="M114.923 6.71139C114.921 7.79304 113.242 9.4857 112.165 9.4915C111.174 9.49665 110.367 8.66995 110.364 7.64689C110.361 6.51276 111.961 4.8906 113.086 4.8877C114.07 4.88512 114.925 5.73339 114.923 6.71139Z" fill="#91B40D"/>
<path d="M41.1273 15.6622C42.1143 15.6525 42.9407 16.5056 42.9333 17.5271C42.9252 18.6474 41.399 20.2064 40.2732 20.2435C39.2717 20.2766 38.3858 19.4599 38.3607 18.4809C38.334 17.4225 40.0514 15.6725 41.1273 15.6622Z" fill="#91B40D"/>
<path d="M85.0164 18.464C85.0016 19.4458 84.1241 20.269 83.119 20.2439C81.9862 20.2152 80.457 18.6732 80.4416 17.5436C80.4274 16.5237 81.2458 15.6639 82.2321 15.6626C83.3086 15.6613 85.0325 17.3955 85.0164 18.464Z" fill="#91B40D"/>
</svg>
