<svg width="44" height="46" viewBox="0 0 44 46" fill="none" xmlns="http://www.w3.org/2000/svg">
<path d="M22.1557 0.689841C25.6187 0.689841 29.0819 0.688666 32.5449 0.690406C34.1751 0.691184 34.8042 1.13579 35.3224 2.65601C36.6417 6.52695 39.0003 9.60175 42.4455 11.8022C43.622 12.5537 44.1366 13.4686 43.8051 14.8602C43.4867 16.1987 43.2683 17.5609 42.953 18.9004C42.7252 19.8664 42.0157 20.352 41.2259 20.1832C40.3651 19.9993 39.9419 19.2778 40.1425 18.2501C40.3449 17.2135 40.5706 16.1802 40.8252 15.1553C40.9646 14.5933 40.8768 14.2358 40.3495 13.8752C36.8329 11.4694 34.3309 8.24724 32.8416 4.25812C32.6331 3.69935 32.3418 3.56165 31.7915 3.56686C25.3463 3.62791 18.9008 3.67541 12.4554 3.7011C11.9185 3.70322 11.6746 3.86487 11.4945 4.3717C10.0653 8.38805 7.58749 11.6255 4.11068 14.0832C3.59994 14.4442 3.48861 14.7942 3.6401 15.3663C3.91037 16.3868 4.13058 17.4213 4.35043 18.4546C4.55917 19.4348 4.19931 20.1384 3.39999 20.376C2.63229 20.6043 1.83554 20.1451 1.60263 19.2146C1.20626 17.632 0.846645 16.0372 0.558071 14.4318C0.404751 13.5787 0.796718 12.8438 1.52938 12.3739C5.29696 9.95676 7.83456 6.62139 9.16354 2.34331C9.48568 1.30576 10.283 0.835273 11.4769 0.831992C15.0365 0.82212 18.596 0.828315 22.1557 0.828315V0.689841Z" fill="#91B40D"/>
<path d="M22.4694 45.7897C21.9937 45.623 21.5789 45.539 21.2249 45.3445C13.1561 40.9162 7.52251 34.3113 3.9113 25.9116C3.50188 24.959 3.80229 24.1567 4.62798 23.827C5.41655 23.512 6.16362 23.877 6.59294 24.8651C8.76677 29.8689 11.704 34.3551 15.8271 37.9563C17.6512 39.5495 19.7334 40.846 21.6836 42.2975C22.2067 42.6869 22.6185 42.6025 23.1519 42.2776C29.7786 38.2417 34.4887 32.5608 37.6244 25.5166C37.7676 25.1948 37.8921 24.8642 38.0474 24.5484C38.4845 23.6594 39.2236 23.3381 39.9994 23.6874C40.778 24.0375 41.0616 24.8031 40.6855 25.7071C39.389 28.8244 37.7795 31.7715 35.7887 34.5023C32.5896 38.8909 28.6438 42.4535 23.9235 45.1463C23.4623 45.4096 22.9483 45.5806 22.4694 45.7897Z" fill="#91B40D"/>
<path d="M21.4252 25.8848C23.8826 22.1768 26.2651 18.5804 28.6495 14.9855C28.8042 14.7524 28.9467 14.5025 29.1413 14.3064C29.6154 13.8284 30.1806 13.7383 30.74 14.1241C31.2853 14.5002 31.4699 15.0355 31.1807 15.6681C31.0768 15.8956 30.9369 16.1086 30.7982 16.318C28.1992 20.2425 25.5989 24.166 22.9965 28.0881C22.1526 29.36 21.4884 29.4308 20.3694 28.3723C18.8215 26.908 17.2727 25.4446 15.7321 23.9728C14.9889 23.2629 14.8946 22.4883 15.4574 21.9279C16.0176 21.3705 16.7063 21.4328 17.451 22.1312C18.7563 23.355 20.0531 24.588 21.4252 25.8848Z" fill="#91B40D"/>
</svg>
