
<svg width="21" height="16" viewBox="0 0 21 16" fill="none" xmlns="http://www.w3.org/2000/svg">
<path d="M19.9125 1.8613C19.4851 2.05081 19.0415 2.20031 18.5863 2.30856C19.0879 1.83189 19.465 1.23569 19.6778 0.570221V0.570221C19.7385 0.380245 19.5322 0.215961 19.3606 0.31768V0.31768C18.7273 0.693325 18.0452 0.975132 17.333 1.15536C17.2917 1.16581 17.2491 1.17111 17.2063 1.17111C17.0766 1.17111 16.9505 1.12295 16.8513 1.03553C16.0936 0.367764 15.1192 0 14.1075 0C13.6697 0 13.2277 0.0682335 12.7937 0.202831C11.4491 0.619884 10.4116 1.72905 10.086 3.0975C9.96393 3.61079 9.93086 4.12455 9.9877 4.62447C9.99422 4.68192 9.96707 4.72202 9.95033 4.74082C9.92092 4.77379 9.87923 4.79269 9.83594 4.79269C9.83111 4.79269 9.82614 4.79246 9.82122 4.79198C6.87787 4.51852 4.22369 3.1005 2.34757 0.799171V0.799171C2.2519 0.681789 2.06844 0.696186 1.99218 0.826984V0.826984C1.62479 1.45728 1.43064 2.17818 1.43064 2.91174C1.43064 4.03596 1.8823 5.09541 2.66684 5.86776C2.33692 5.78953 2.0176 5.66634 1.72098 5.50158V5.50158C1.57747 5.42186 1.40091 5.52433 1.39889 5.68847V5.68847C1.37835 7.35856 2.35615 8.84464 3.82093 9.51382C3.79143 9.51451 3.76194 9.51484 3.73239 9.51484C3.5002 9.51484 3.26511 9.49243 3.03372 9.4482V9.4482C2.87211 9.41735 2.73635 9.57065 2.78653 9.72734V9.72734C3.26197 11.2117 4.54 12.3058 6.06941 12.5542C4.8001 13.4063 3.32195 13.8557 1.78349 13.8557L1.30388 13.8554C1.1561 13.8554 1.03112 13.9518 0.993465 14.0949C0.956369 14.2359 1.0247 14.3846 1.15071 14.4579C2.88431 15.4668 4.86172 16 6.87004 16C8.62797 16 10.2724 15.6511 11.7576 14.9632C13.1192 14.3324 14.3223 13.4308 15.3337 12.2834C16.2759 11.2145 17.0126 9.98063 17.5234 8.61602C18.0104 7.31524 18.2677 5.92727 18.2677 4.60214V4.53902C18.2677 4.32626 18.3639 4.12605 18.5318 3.98977C19.1689 3.47249 19.7237 2.86358 20.1807 2.17996V2.17996C20.3014 1.99946 20.1111 1.77322 19.9125 1.8613V1.8613Z" fill="#4B4B4D"/>
</svg>
