<svg width="35" height="36" viewBox="0 0 35 36" fill="none" xmlns="http://www.w3.org/2000/svg">
<path d="M0 3.87305C0 2.21619 1.34315 0.873047 3 0.873047H32C33.6569 0.873047 35 2.21619 35 3.87305V32.873C35 34.5299 33.6569 35.873 32 35.873H3C1.34315 35.873 0 34.5299 0 32.873V3.87305Z" fill="white"/>
<path d="M26.9291 12.7343C26.5017 12.9239 26.0581 13.0734 25.6029 13.1816C26.1045 12.7049 26.4816 12.1087 26.6944 11.4433C26.7551 11.2533 26.5488 11.089 26.3772 11.1907C25.7439 11.5664 25.0618 11.8482 24.3496 12.0284C24.3083 12.0389 24.2657 12.0442 24.2229 12.0442C24.0932 12.0442 23.9671 11.996 23.8679 11.9086C23.1102 11.2408 22.1358 10.873 21.1241 10.873C20.6863 10.873 20.2443 10.9413 19.8103 11.0759C18.4657 11.4929 17.4282 12.6021 17.1026 13.9706C16.9805 14.4838 16.9475 14.9976 17.0043 15.4975C17.0108 15.555 16.9837 15.5951 16.9669 15.6139C16.9375 15.6468 16.8958 15.6657 16.8525 15.6657C16.8477 15.6657 16.8427 15.6655 16.8378 15.665C13.8945 15.3916 11.2403 13.9735 9.36417 11.6722C9.2685 11.5548 9.08504 11.5692 9.00879 11.7C8.64139 12.3303 8.44724 13.0512 8.44724 13.7848C8.44724 14.909 8.89891 15.9685 9.68345 16.7408C9.35353 16.6626 9.0342 16.5394 8.73758 16.3746C8.59407 16.2949 8.41751 16.3974 8.41549 16.5615C8.39495 18.2316 9.37275 19.7177 10.8375 20.3869C10.808 20.3876 10.7785 20.3879 10.749 20.3879C10.5168 20.3879 10.2817 20.3655 10.0503 20.3213C9.88871 20.2904 9.75295 20.4437 9.80313 20.6004C10.2786 22.0847 11.5566 23.1788 13.086 23.4272C11.8167 24.2793 10.3386 24.7288 8.80009 24.7288L8.32048 24.7285C8.17271 24.7285 8.04772 24.8248 8.01007 24.968C7.97297 25.1089 8.0413 25.2576 8.16731 25.3309C9.90091 26.3398 11.8783 26.8731 13.8866 26.8731C15.6446 26.8731 17.289 26.5242 18.7742 25.8362C20.1358 25.2055 21.3389 24.3039 22.3503 23.1565C23.2925 22.0876 24.0292 20.8537 24.54 19.4891C25.027 18.1883 25.2843 16.8003 25.2843 15.4752V15.4121C25.2843 15.1993 25.3805 14.9991 25.5484 14.8628C26.1855 14.3455 26.7403 13.7366 27.1973 13.053C27.318 12.8725 27.1277 12.6463 26.9291 12.7343Z" fill="#91B40D"/>
</svg>
