<svg width="53" height="46" viewBox="0 0 53 46" fill="none" xmlns="http://www.w3.org/2000/svg">
<path d="M52.0048 7.58902C51.8367 8.77914 51.7111 9.97702 51.4926 11.1576C50.8842 14.4435 49.7539 17.5205 47.635 20.1573C44.7275 23.7749 40.8986 25.4372 36.296 25.3992C33.5969 25.3769 31.0206 24.752 28.5362 23.7334C28.1711 23.5836 27.9387 23.6007 27.6547 23.8734C27.0996 24.4058 26.2893 24.8003 25.9946 25.4405C25.7005 26.0799 25.8991 26.95 25.8966 27.7189C25.8911 29.3954 25.9015 31.0719 25.8894 32.7482C25.887 33.0706 25.9606 33.2131 26.318 33.2599C28.3463 33.5249 30.1801 34.3412 31.9158 35.3736C35.0513 37.2384 37.747 39.6479 40.2781 42.2521C40.8886 42.8803 41.1248 43.6223 40.7986 44.4618C40.4932 45.2477 39.8936 45.6848 39.0444 45.7585C38.8779 45.7729 38.7106 45.7874 38.5437 45.7874C29.6082 45.7888 20.6726 45.7881 11.7371 45.7898C10.971 45.7901 10.2645 45.6446 9.76777 44.997C9.12953 44.1648 9.16731 43.0711 9.95912 42.3017C11.3769 40.9242 12.8408 39.5938 14.2998 38.2593C14.7172 37.8775 15.1534 37.9015 15.4525 38.2526C15.7405 38.5905 15.6761 39.0327 15.2771 39.4034C13.9265 40.6577 12.5734 41.9093 11.2229 43.1636C11.0009 43.3697 10.6974 43.6172 10.9077 43.9176C11.0449 44.1138 11.398 44.2566 11.6548 44.257C20.6406 44.274 29.6265 44.274 38.6122 44.2572C38.8692 44.2567 39.2649 44.1061 39.3429 43.9198C39.4181 43.74 39.2283 43.3615 39.047 43.1754C36.6666 40.7314 34.1282 38.4729 31.1931 36.7024C29.6641 35.7799 28.0516 35.0478 26.2708 34.7625C24.3559 34.456 22.578 34.9573 20.8706 35.761C20.0998 36.1237 19.3679 36.5691 18.6198 36.9795C18.4585 37.0681 18.3093 37.1798 18.1443 37.2598C17.7377 37.4568 17.3443 37.3562 17.131 37.0139C16.9153 36.6677 16.9817 36.2395 17.3584 35.9981C19.3868 34.6984 21.4976 33.5788 23.9307 33.2577C24.3134 33.2072 24.3869 33.0673 24.3861 32.7223C24.377 28.2461 24.3841 23.77 24.3676 19.294C24.3667 19.0799 24.2323 18.8195 24.0773 18.6623C23.7138 18.2935 23.2754 17.9982 22.914 17.6275C22.6094 17.3153 22.3469 17.3045 21.9499 17.4644C19.5192 18.4439 17.001 19.0354 14.3643 18.9447C9.0442 18.7618 5.24202 16.1756 2.83339 11.4991C1.26411 8.4523 0.625317 5.15884 0.525647 1.75644C0.517102 1.46304 0.723584 1.08011 0.953869 0.884367C1.23585 0.644621 1.56343 0.855253 1.85609 1.06705C3.21663 2.05099 4.80055 2.52737 6.40803 2.83945C9.01899 3.34616 11.6581 3.70584 14.2789 4.1647C17.1802 4.67258 19.6276 5.95791 21.3397 8.44314C22.3871 9.96316 22.9785 11.6553 23.2266 13.4731C23.3012 14.02 23.3439 14.5719 23.3803 15.1229C23.448 16.1515 23.4416 16.1519 24.3801 16.8647C24.3801 16.6048 24.3801 16.4202 24.3801 16.2357C24.3801 12.7989 24.3797 9.36221 24.3804 5.92551C24.3807 5.10116 24.6113 4.74954 25.1446 4.75094C25.6785 4.75241 25.8946 5.08981 25.8946 5.93167C25.8951 11.5143 25.895 17.0968 25.895 22.6795C25.895 22.8748 25.895 23.07 25.895 23.3925C26.3485 23.0053 26.7226 22.7273 27.0386 22.394C27.1492 22.2773 27.1458 22.0247 27.1454 21.8344C27.1412 19.8522 27.4556 17.9328 28.2381 16.1008C29.7959 12.4533 32.5938 10.3122 36.4193 9.5231C38.2524 9.14499 40.1329 9.00247 41.9819 8.69272C44.4753 8.27505 46.9605 7.79996 49.294 6.77103C49.7351 6.57651 50.1605 6.32968 50.5573 6.05527C51.2196 5.59744 51.4595 5.60062 52.0048 6.18075V7.58902ZM50.1973 9.40805C48.3153 11.8037 46.0128 13.6656 43.2711 15.0261C43.9028 15.135 44.5132 15.177 45.124 15.2112C45.7288 15.245 46.0616 15.506 46.0637 15.9593C46.066 16.4364 45.6832 16.7767 45.0813 16.7123C43.7528 16.5705 42.4304 16.3717 41.1041 16.2074C40.9164 16.184 40.6949 16.1674 40.5328 16.2424C38.6657 17.107 36.8004 17.9762 34.9496 18.8752C34.3147 19.1834 33.7218 19.5782 33.1098 19.9335L33.1358 20.1014C34.0484 20.2909 34.955 20.5241 35.8761 20.655C36.516 20.7459 37.1758 20.6976 37.8268 20.7094C38.3136 20.7181 38.6304 20.9827 38.655 21.4049C38.6793 21.8227 38.431 22.1357 37.9794 22.1909C37.5647 22.2415 37.1434 22.2756 36.7265 22.2633C35.0326 22.2141 33.4245 21.7739 31.8543 21.1636C31.6865 21.0984 31.4305 21.0377 31.3073 21.1172C30.6799 21.5227 30.0825 21.9751 29.4442 22.4328C29.5498 22.4969 29.6018 22.5409 29.6618 22.5633C32.2658 23.5348 34.9487 24.0564 37.7335 23.8466C40.6004 23.6307 43.1125 22.5644 45.2137 20.5678C46.9904 18.8797 48.1718 16.8217 49.0036 14.5446C49.6078 12.8905 50.0127 11.1865 50.1973 9.40805ZM48.7714 8.63589C48.077 8.8472 47.4906 9.0383 46.897 9.20431C43.9037 10.0414 40.8215 10.3749 37.7571 10.8116C35.6478 11.112 33.69 11.7942 32.0642 13.2284C30.035 15.0186 29.1279 17.3673 28.7694 19.9774C28.7218 20.3249 28.7025 20.6762 28.6628 21.104C28.8561 20.9759 28.9555 20.9159 29.0487 20.8475C31.0228 19.3982 33.0876 18.0944 35.278 16.9964C35.5781 16.846 35.6754 16.6506 35.7563 16.3248C36.0413 15.1778 36.3744 14.0407 36.7432 12.9177C36.9015 12.4357 37.354 12.2773 37.7586 12.4473C38.1497 12.6114 38.2969 13.0377 38.1162 13.5076C38.0442 13.6948 37.9368 13.8693 37.8753 14.0592C37.6784 14.6671 37.4956 15.2799 37.2677 16.0193C41.5391 14.0934 45.8943 12.616 48.7714 8.63589ZM17.724 13.9204C17.6416 13.8482 17.6094 13.8058 17.5667 13.7846C15.3948 12.7073 13.2238 11.6278 11.0451 10.5644C10.898 10.4927 10.6865 10.5119 10.5139 10.5412C9.92073 10.6416 9.33577 10.8086 8.73945 10.8699C7.94105 10.9519 7.13337 11.0022 6.33308 10.9731C6.08149 10.964 5.75795 10.7031 5.62343 10.468C5.52827 10.3021 5.62037 9.91745 5.76704 9.75503C5.9181 9.58749 6.23182 9.52041 6.48225 9.49826C7.09633 9.44382 7.71492 9.44058 8.33174 9.41678L8.35005 9.29013C5.99293 8.15072 3.99763 6.55783 2.31746 4.40622C2.31746 4.63791 2.30397 4.73489 2.31947 4.82712C2.77919 7.57883 3.59211 10.2066 5.19795 12.5213C6.66243 14.6324 8.59535 16.1556 11.078 16.9204C13.1571 17.5609 15.2747 17.5921 17.3912 17.1945C18.626 16.9627 19.8361 16.5992 21.0573 16.295L21.052 16.1272C20.5924 15.7984 20.1216 15.4841 19.6779 15.1351C19.4467 14.9532 19.2551 14.9838 18.9951 15.0604C17.8747 15.3905 16.7581 15.7605 15.6134 15.9708C14.8526 16.1104 14.0452 16.036 13.2618 15.9961C12.8228 15.9738 12.5505 15.5934 12.58 15.2065C12.6102 14.8111 12.9257 14.5306 13.3667 14.5228C13.5673 14.5194 13.7681 14.5443 13.9689 14.552C15.2529 14.6008 16.4861 14.3671 17.724 13.9204ZM3.73835 3.70914C6.2978 7.15011 10.1534 8.48141 13.9 10.0717C13.6778 9.29947 13.4047 8.55661 13.0958 7.82895C12.8624 7.27835 12.9288 6.85831 13.3396 6.64651C13.7547 6.43234 14.1598 6.6008 14.4423 7.12277C15.0145 8.18033 15.3596 9.31283 15.4889 10.5053C15.5236 10.8261 15.6578 10.9906 15.9318 11.1557C17.7516 12.2519 19.5557 13.3739 21.3647 14.488C21.5 14.5713 21.6331 14.6584 21.9087 14.8337C21.7607 13.9684 21.6829 13.2386 21.5067 12.5333C20.8923 10.0766 19.6223 8.08151 17.3602 6.80856C15.9467 6.01321 14.3993 5.7001 12.8165 5.46744C10.7308 5.16073 8.64796 4.82663 6.57435 4.44754C5.62617 4.27408 4.70265 3.96463 3.73835 3.70914Z" fill="#91B40D"/>
</svg>
