
<svg width="22" height="17" viewBox="0 0 22 17" fill="none" xmlns="http://www.w3.org/2000/svg">
<path d="M9.68686 4.46885C9.25159 4.2088 8.69385 4.52313 8.69385 5.03275V11.1626C8.69385 11.6749 9.25252 11.9849 9.68686 11.7274L14.8262 8.66692C15.2536 8.41206 15.2527 7.79382 14.8272 7.53811L9.68686 4.46885ZM10.0074 10.0076V6.18957L13.208 8.10117L10.0074 10.0076Z" fill="#4B4B4D"/>
<path d="M18.4131 0.453815C14.3385 -0.151272 8.64654 -0.151272 4.5702 0.453815C2.93971 0.695515 1.65507 1.97579 1.37484 3.63781C0.852918 6.72288 0.852918 9.47342 1.37484 12.5576C1.65507 14.2205 2.93971 15.4999 4.5702 15.7416C6.61233 16.0445 9.05722 16.1961 11.5013 16.1961C13.9409 16.1961 16.3797 16.0454 18.4139 15.7424C20.0427 15.5007 21.3265 14.2214 21.6084 12.5584C22.1304 9.47342 22.1304 6.72196 21.6084 3.63694C21.3282 1.97579 20.0436 0.695515 18.4131 0.453815V0.453815ZM20.3133 12.3395C20.1268 13.4394 19.2861 14.2853 18.2204 14.4429C14.2641 15.0305 8.72974 15.0305 4.76288 14.442C3.6963 14.2836 2.85474 13.4385 2.66912 12.3386C2.16645 9.36655 2.16645 6.82968 2.66912 3.85587C2.85564 2.75602 3.6963 1.91185 4.76375 1.7525C6.74455 1.45912 9.11855 1.31201 11.4908 1.31201C13.8647 1.31201 16.2387 1.45912 18.2195 1.7525C19.2861 1.91097 20.1276 2.75602 20.3133 3.85587C20.8159 6.82968 20.8159 9.36655 20.3133 12.3395V12.3395Z" fill="#4B4B4D"/>
</svg>
